<?xml version="1.0" encoding="UTF-8" standalone="no"?>
<svg
        xmlns:dc="http://purl.org/dc/elements/1.1/"
        xmlns:cc="http://creativecommons.org/ns#"
        xmlns:rdf="http://www.w3.org/1999/02/22-rdf-syntax-ns#"
        xmlns:svg="http://www.w3.org/2000/svg"
        xmlns="http://www.w3.org/2000/svg"
        xmlns:sodipodi="http://sodipodi.sourceforge.net/DTD/sodipodi-0.dtd"
        xmlns:inkscape="http://www.inkscape.org/namespaces/inkscape"
        version="1.1"
        id="svg833"
        width="3650.0535"
        height="731.55078"
        viewBox="0 0 3650.0535 731.55078"
        sodipodi:docname="PRO DŽONDU OD TOMÝGA.svg"
        inkscape:version="1.0.2-2 (e86c870879, 2021-01-15)">
  <metadata
          id="metadata839">
    <rdf:RDF>
      <cc:Work
              rdf:about="">
        <dc:format>image/svg+xml</dc:format>
        <dc:type
                rdf:resource="http://purl.org/dc/dcmitype/StillImage" />
        <dc:title />
      </cc:Work>
    </rdf:RDF>
  </metadata>
  <defs
          id="defs837" />
  <sodipodi:namedview
          pagecolor="#ffffff"
          bordercolor="#000000"
          borderopacity="0.25"
          objecttolerance="10"
          gridtolerance="10"
          guidetolerance="10"
          inkscape:pageopacity="0"
          inkscape:pageshadow="2"
          inkscape:window-width="1920"
          inkscape:window-height="1009"
          id="namedview835"
          showgrid="false"
          inkscape:zoom="0.22627417"
          inkscape:cx="2349.4624"
          inkscape:cy="676.44526"
          inkscape:window-x="-8"
          inkscape:window-y="-8"
          inkscape:window-maximized="1"
          inkscape:current-layer="g841"
          inkscape:document-rotation="0" />
  <g
          inkscape:groupmode="layer"
          inkscape:label="Image"
          id="g841">
    <path
            style="fill:#FFFFFF;stroke-width:2.43897"
            d="m 2462.1503,710.50283 c -41.5921,-6.50144 -65.7875,-16.76647 -81.4439,-34.55319 -19.9289,-22.64031 -21.5283,-48.56725 -4.6217,-74.91398 8.2835,-12.90871 25.7499,-28.05496 38.3904,-33.29082 6.7699,-2.80419 7.6388,-4.12647 6.2941,-9.5772 -0.8578,-3.47812 -2.1893,-15.40248 -2.9585,-26.49856 -1.3296,-19.17841 -1.01,-20.96404 6.4704,-36.1592 6.243,-12.681 10.8596,-18.18592 22.3387,-26.6363 7.9583,-5.8585 16.6288,-11.33718 19.2682,-12.17484 4.1679,-1.32285 4.7988,-3.75868 4.7988,-18.52871 0,-31.84305 16.1969,-49.95865 55.4866,-62.05967 1.8051,-0.55595 3.0723,-5.19828 3.1065,-11.38117 0.2196,-39.45063 55.775,-101.75384 107.9581,-121.06864 16.8217,-6.22629 44.9942,-7.30489 47.1052,-1.80355 0.7221,1.88165 -1.0837,8.99189 -4.0126,15.80056 -6.5203,15.15733 -5.4695,20.55959 8.0603,41.43077 8.5112,13.12947 10.278,18.07669 11.4237,31.98879 l 1.3551,16.45732 19.4999,13.24499 c 32.548,22.10747 45.9287,47.73499 40.3318,77.24656 -1.3537,7.13772 -3.0222,13.88558 -3.708,14.99519 -0.6859,1.10964 4.7271,5.38904 12.0286,9.5098 17.0642,9.6303 29.9069,22.55948 36.412,36.65687 4.3155,9.35223 5.114,15.43141 4.8538,36.95862 l -0.3115,25.76526 10.5041,5.57238 c 28.248,14.98559 45.727,42.39301 45.9366,72.03066 0.2367,33.55406 -10.9104,53.67797 -36.735,66.31279 -12.1776,5.95795 -16.4042,6.70882 -37.1314,6.59605 -13.9392,-0.0758 -38.9029,-2.82423 -61.7836,-6.80206 l -38.3937,-6.67481 -39.6533,5.10041 c -83.5027,10.74047 -149.2352,12.96374 -190.8697,6.45568 z m 162.1916,-14.52191 c 52.7046,-6.7295 51.7854,-5.84971 15.8535,-15.16991 -94.2905,-24.45766 -151.673,-51.25218 -188.5287,-88.03278 -9.7903,-9.77032 -19.6681,-17.75392 -21.9508,-17.74135 -7.3001,0.0403 -28.8937,14.04382 -37.9245,24.5942 -27.8646,32.55366 -15.9385,71.42113 26.8672,87.56064 32.1211,12.11095 53.5054,14.60512 116.6609,13.60703 33.3135,-0.52651 71.672,-2.60241 89.0224,-4.81783 z m 197.6997,0.0543 c 23.4259,-9.78927 31.5735,-23.85782 31.5409,-54.46207 -0.024,-19.24228 -0.7577,-22.71951 -7.1976,-33.94747 -6.9126,-12.05216 -22.0216,-25.2805 -37.9004,-33.18292 -10.8437,-5.39655 -84.572,-7.60772 -99.8957,-2.99594 -16.3953,4.93426 -30.2595,1.63877 -42.9962,-10.22027 -3.47,-3.23097 -18.2867,-10.64389 -32.9261,-16.47312 -14.6392,-5.82924 -30.6839,-12.37501 -35.6545,-14.54613 l -9.0375,-3.94751 -5.1068,11.57251 c -7.3117,16.56862 -20.6375,29.28933 -35.2193,33.61962 -10.6879,3.17396 -13.6221,3.17778 -24.4438,0.0318 -31.8053,-9.24611 -50.3772,-53.50067 -39.4584,-94.02535 1.9872,-7.37606 3.2841,-13.74033 2.8818,-14.14278 -2.0325,-2.03239 -15.174,3.51398 -28.0603,11.84276 -10.3418,6.68423 -16.6057,13.0271 -22.0056,22.28342 -7.0014,12.00131 -7.4932,14.35406 -6.7832,32.4512 0.9946,25.35169 8.527,41.99273 27.4261,60.59243 50.0927,49.29862 151.512,84.68542 314.6948,109.80212 12.3565,1.90189 41.2857,-0.55146 50.1418,-4.25231 z m -224.5283,-45.81565 c -19.9989,-3.10023 -42.8241,-15.37943 -60.3187,-32.44924 -24.9572,-24.35095 -20.2381,-30.95925 18.5557,-25.98417 27.8804,3.57552 84.7401,3.49538 117.6663,-0.16583 21.2844,-2.36671 26.845,-2.31132 29.9898,0.29864 6.0374,5.0106 4.5994,11.53082 -4.8494,21.98967 -24.5536,27.1779 -65.3613,41.84247 -101.0437,36.31093 z m 42.7794,-5.79816 c 18.181,-4.70487 36.737,-15.78031 51.4281,-30.69559 7.9625,-8.08422 10.8598,-12.74421 9.7391,-15.66491 -1.4358,-3.74127 -4.0939,-3.94318 -26.5522,-2.0171 -32.0058,2.745 -91.0911,2.74353 -123.1251,-0.003 -23.4334,-2.00915 -24.9995,-1.862 -24.9995,2.34856 0,5.98124 22.924,27.39371 38.251,35.72894 24.8179,13.49667 49.7354,16.90796 75.2586,10.30312 z m -81.1711,-83.16294 c 5.433,-3.85273 13.1424,-12.85656 17.2202,-20.1115 14.0519,-25.00207 11.3163,-65.65351 -5.8094,-86.32312 -20.3054,-24.50739 -50.1376,-24.5654 -70.2741,-0.13658 -10.401,12.61831 -14.9473,27.71317 -14.884,49.42131 0.1439,50.05792 40.0927,81.01506 73.7473,57.14991 z m -32.1035,-23.49218 c -11.8259,-6.0425 -16.0883,-15.23614 -16.0883,-34.70196 0,-19.49007 4.0497,-28.19806 16.3653,-35.18988 15.0608,-8.55031 31.1947,9.66231 31.1947,35.21383 0,25.04468 -15.9431,42.61221 -31.4717,34.67801 z m 193.0757,23.49218 c 5.4782,-3.88471 13.1918,-12.91981 17.4072,-20.39007 7.0684,-12.52552 7.5702,-15.03044 7.5702,-37.80407 0,-20.91556 -0.821,-25.9531 -5.7631,-35.3651 -14.8101,-28.20586 -38.333,-38.55 -61.17,-26.89947 -20.0451,10.22624 -31.8556,32.81066 -31.8317,60.86983 0.024,20.38491 3.0261,31.05386 12.8565,45.58967 15.6379,23.12258 40.13,28.7497 60.9309,13.99921 z m -37.9303,-25.30616 c -8.4187,-6.62197 -12.2454,-19.4516 -10.9877,-36.83767 1.6303,-22.53797 14.8135,-35.59197 30.3545,-30.057 10.6964,3.80958 16.3678,13.93546 17.466,31.18523 1.9887,31.23298 -17.9496,50.56313 -36.8328,35.70944 z m 112.54,25.03761 c 3.6962,-7.0305 5.8148,-29.05877 4.0376,-41.98062 -2.9428,-21.3967 -18.8307,-39.4529 -43.9507,-49.94873 l -9.1251,-3.81272 2.1351,10.37182 c 4.1028,19.93091 2.4223,48.26001 -3.6794,62.02611 -3.079,6.94688 -7.6919,14.52535 -10.2509,16.84105 -2.5587,2.31571 -4.6523,5.07768 -4.6523,6.13772 0,2.18972 14.0592,3.55442 43.2059,4.19394 16.8818,0.37043 20.3891,-0.23219 22.2798,-3.82857 z m -145.9718,-19.1364 c 0,-0.79961 -1.7879,-7.60469 -3.9736,-15.12238 -5.4904,-18.8859 -3.4075,-44.80355 4.9352,-61.41369 l 6.2373,-12.41768 -6.6481,-2.42491 c -32.4199,-11.82508 -65.8998,-30.36452 -92.2969,-51.10895 -9.1831,-7.21681 -17.9418,-12.15275 -21.5644,-12.15275 -15.0748,0 -39.6289,14.22179 -47.8602,27.72093 -5.7085,9.3617 -6.3876,32.46116 -1.161,39.49437 3.3915,4.56432 3.8514,4.39247 12.8043,-4.78528 10.3702,-10.63043 25.3231,-18.39397 35.5838,-18.47497 17.1506,-0.13536 36.8011,14.48628 47.4294,35.29132 4.7722,9.34127 6.5013,17.1148 7.4298,33.40181 0.6908,12.11589 2.3771,21.74829 3.9285,22.44131 19.8886,8.88409 49.7324,20.87133 52.1073,20.92975 1.6767,0.0413 3.0486,-0.57927 3.0486,-1.37888 z m 97.2477,-91.83683 c 5.2815,-16.7068 5.6533,-25.81282 1.62,-39.68745 -4.7792,-16.43958 -19.4196,-32.50652 -40.3324,-44.2621 -11.2439,-6.3205 -16.8007,-7.73709 -34.3453,-8.7551 -14.3618,-0.83341 -24.6956,-2.92441 -32.9261,-6.66254 -12.7814,-5.8051 -11.1366,-9.70731 2.0809,-4.93644 13.0308,4.70357 36.2473,7.35256 41.2016,4.70107 3.4685,-1.85629 4.4772,-5.27325 4.4772,-15.16594 0,-10.76298 -1.7545,-15.76706 -11.1646,-31.84241 -13.2437,-22.62382 -15.2695,-31.91649 -9.8899,-45.36161 l 3.9422,-9.85244 h -5.9668 c -10.3216,0 -36.0516,10.73969 -52.529,21.92584 -21.1762,14.37582 -37.3858,29.80335 -50.2634,47.8379 -14.5107,20.32164 -20.3497,34.11981 -20.4132,48.23843 -0.047,10.48922 0.9663,12.86874 8.5123,19.98557 20.0632,18.92201 66.952,46.67461 96.0528,56.85178 l 13.1572,4.60139 11.0535,-7.00979 c 21.3651,-13.54936 39.8553,-11.5102 58.6994,6.47352 6.186,5.90364 11.9853,10.75934 12.8875,10.79043 0.902,0.031 2.7679,-3.51046 4.1461,-7.87011 z M 834.60685,643.12849 c -23.30904,-3.02617 -40.60656,-8.82149 -48.58088,-16.27638 -9.62827,-9.00118 -17.17272,-30.16259 -20.16228,-56.55313 -2.7607,-24.37025 -1.12542,-113.56553 2.59651,-141.62331 2.16447,-16.31691 3.02942,-88.51388 1.58226,-132.06236 -0.42274,-12.71914 0.40752,-17.25587 3.8541,-21.06106 6.03948,-6.66781 17.8877,-8.64984 26.38051,-4.41304 6.17957,3.08274 9.9803,2.79428 35.63195,-2.70446 53.78445,-11.52936 127.31184,-8.342 157.16265,6.81287 17.51053,8.88989 17.34133,33.88578 -0.27875,41.18427 -6.77779,2.80747 -10.74851,2.54943 -30.46652,-1.97995 -43.2119,-9.92609 -83.10946,-9.39845 -126.97049,1.6792 l -17.0728,4.31194 -1.76983,54.58218 c -0.97338,30.02022 -1.50916,54.84289 -1.19054,55.16146 0.31855,0.31858 33.49234,-2.68195 73.71949,-6.66782 40.22707,-3.98588 76.84338,-6.69819 81.36946,-6.02734 10.73595,1.59128 16.91039,7.42031 18.85824,17.80303 1.86293,9.93014 -1.55168,18.57858 -9.29382,23.53886 -3.87172,2.48053 -27.41704,5.53109 -76.32895,9.8892 -38.90158,3.4662 -75.94349,6.95197 -82.31529,7.74617 l -11.58515,1.44406 0.0583,46.72133 c 0.0319,25.69673 1.04874,50.99154 2.25948,56.21068 3.94394,17.00114 4.68835,17.24411 55.61098,18.15013 25.06313,0.44595 58.01956,-0.4049 73.23641,-1.89072 21.99064,-2.14728 29.01217,-2.05671 34.22459,0.44151 7.86674,3.77037 13.20022,17.75476 10.55036,27.663 -3.25493,12.17047 -11.18175,15.6042 -41.88475,18.14354 -32.87591,2.71903 -87.38836,2.6073 -109.19516,-0.22391 z m 312.93755,1.26006 c -2.683,-0.62223 -10.9144,-2.34578 -18.2924,-3.83013 -7.3779,-1.48432 -20.4257,-5.86366 -28.9951,-9.73189 -8.5696,-3.8682 -17.5267,-7.03309 -19.9048,-7.03309 -2.378,0 -7.2979,-3.53458 -10.9331,-7.85463 l -6.6092,-7.85462 2.0928,-65.92428 c 1.1511,-36.25835 1.699,-106.055 1.2177,-155.10365 -0.7669,-78.15483 -0.3922,-90.11327 3.0314,-96.73379 5.1624,-9.98293 15.3286,-17.74253 23.2349,-17.73471 3.5081,0.003 20.6463,6.68472 38.085,14.84726 17.4386,8.16251 38.8406,17.57944 47.5599,20.92651 79.4445,30.49607 138.2904,89.55674 151.4226,151.97523 3.7556,17.84979 1.6242,61.24863 -3.7752,76.87317 -11.56,33.45238 -30.285,60.93868 -53.3,78.23939 -17.0897,12.84664 -25.7282,16.94125 -49.1328,23.28856 -16.2811,4.41546 -65.2632,8.07166 -75.7017,5.65067 z m 61.6608,-48.66894 c 21.459,-5.05932 31.5395,-10.81774 46.3494,-26.47707 23.7695,-25.1326 35.5664,-61.37459 30.3078,-93.10937 -7.4371,-44.88099 -39.4694,-80.40405 -99.611,-110.46624 -21.4528,-10.72333 -72.9979,-34.56082 -74.6972,-34.54438 -0.3269,0.003 -0.5944,57.05234 -0.5944,126.77595 0,143.6201 -2.1384,129.44336 20.7312,137.43644 14.3431,5.01294 56.9858,5.22457 77.5142,0.38467 z m 247.4859,47.51998 c -26.1283,-3.31248 -44.0724,-11.24042 -52.295,-23.10461 -13.4144,-19.35484 -15.448,-34.1764 -14.8919,-108.53425 0.2758,-36.88945 1.5427,-76.94957 2.815,-89.02248 3.2873,-31.19184 4.0243,-78.26896 1.7373,-110.97324 -1.8472,-26.41356 -1.663,-28.42309 3.161,-34.48127 6.7156,-8.43419 15.2862,-10.36653 26.0434,-5.87181 7.901,3.30119 10.506,3.19269 28.6786,-1.19463 10.9934,-2.6541 32.7954,-6.12832 48.4489,-7.72049 48.6098,-4.94436 110.9756,4.17022 123.9698,18.11785 7.6039,8.16182 6.575,22.51681 -2.2461,31.33796 -8.4558,8.45577 -10.8352,8.59986 -37.2275,2.25427 -39.65,-9.53317 -87.74,-8.40529 -131.7815,3.09071 l -11.5077,3.00382 -1.2846,55.51349 -1.2848,55.51347 9.1339,-1.24942 c 5.0236,-0.6872 39.7447,-4.12171 77.1577,-7.63227 62.9259,-5.90449 68.6284,-6.09454 76.0899,-2.53639 14.9045,7.10744 16.6506,30.29703 2.9433,39.08836 -3.8903,2.49515 -27.5313,5.51874 -77.5463,9.91788 -39.5723,3.48067 -76.4494,6.9043 -81.9491,7.60806 l -9.9993,1.27956 -1.39,29.78289 c -0.7644,16.3806 -0.4872,41.16979 0.6161,55.08711 2.9039,36.63181 1.0875,35.46296 56.6939,36.48451 24.3827,0.44794 56.5565,-0.37921 71.4975,-1.83813 38.9674,-3.80498 47.456,0.01 47.456,21.32441 0,12.3301 -5.8607,19.54368 -18.2922,22.51445 -13.726,3.28005 -113.4648,4.93825 -134.7463,2.24019 z M 48.849433,636.05036 c -2.64875,-2.64875 -5.57708,-7.84865 -6.507378,-11.55529 -0.930317,-3.70666 0.165771,-33.64245 2.435728,-66.52402 2.298247,-33.29113 4.18088,-90.58827 4.248317,-129.29538 0.06663,-38.23088 0.935831,-86.40559 1.931622,-107.05484 1.780067,-36.91248 1.92295,-37.64089 8.492512,-43.29176 9.18123,-7.89736 20.942248,-7.62296 29.247616,0.6824 7.646613,7.64661 7.720237,9.25253 3.678465,80.22795 -1.534419,26.94525 -1.995555,60.39263 -1.028267,74.58406 l 1.753768,25.73017 43.085294,-8.16365 c 65.08339,-12.33179 101.39821,-17.99749 127.12593,-19.83372 l 23.27415,-1.66111 1.57096,-21.95076 c 0.86403,-12.07291 1.70023,-37.31627 1.85817,-56.09635 0.2985,-35.48624 3.39935,-53.40072 11.71717,-67.69322 3.83199,-6.58447 6.2744,-8.03836 14.52992,-8.6492 8.62539,-0.6382 10.78987,0.29524 16.5452,7.13502 5.02965,5.97741 6.23334,9.37892 5.00682,14.14862 -0.88811,3.45363 -2.56807,32.62024 -3.73327,64.81467 -1.16517,32.19442 -3.23655,70.05947 -4.60309,84.14454 -3.17283,32.70329 -3.2391,84.19486 -0.16634,129.20622 2.87077,42.05127 1.25273,49.96587 -11.28607,55.20491 -7.16901,2.99543 -9.4045,2.98089 -16.8003,-0.10925 -4.69203,-1.96046 -9.54527,-6.09095 -10.78499,-9.17889 -2.55248,-6.35786 -7.58737,-88.90826 -7.54242,-123.66324 l 0.0297,-22.92895 -23.77999,1.49243 c -13.07898,0.82083 -33.65781,3.21386 -45.73072,5.31782 -22.33711,3.89271 -105.67403,19.78522 -114.724214,21.87813 -4.654772,1.07643 -5.241464,4.60152 -9.237097,55.49994 -5.551136,70.71319 -5.434224,69.94918 -11.730206,76.65096 -6.968971,7.41811 -21.908657,7.90017 -28.877066,0.93179 z m 352.088217,-3.51397 -8.32989,-8.32986 1.86662,-42.27881 c 2.96999,-67.27211 2.16126,-208.91255 -1.42013,-248.71392 -3.64671,-40.52745 -2.22776,-46.84186 12.55124,-55.85312 17.66029,-10.76811 25.79859,-4.34208 63.08578,49.81267 59.4152,86.29282 106.21292,144.03956 165.94232,204.76702 l 33.96962,34.53724 -1.28258,-79.26659 c -1.45851,-90.13868 -4.2106,-124.93641 -12.63453,-159.75269 -3.64139,-15.04992 -5.32916,-27.44156 -4.40743,-32.35918 3.24523,-17.31358 25.89791,-23.82121 38.05575,-10.93257 8.35692,8.85922 13.09833,20.90129 18.32435,46.53927 3.77028,18.49647 4.30959,35.9451 4.30959,139.43236 0,65.05957 -0.90355,124.61233 -2.00789,132.33942 -3.97506,27.81382 -20.5779,36.1574 -43.24535,21.73244 -30.05218,-19.12442 -140.47873,-146.32722 -208.38695,-240.04563 -6.56101,-9.05468 -12.81498,-16.46307 -13.89768,-16.46307 -1.08271,0 -1.96857,54.1289 -1.96857,120.28645 0,100.78776 -0.60399,122.32026 -3.7259,132.83291 -6.41354,21.59671 -21.96589,26.54817 -36.79837,11.71566 z m 2589.61895,1.40616 c -7.2374,-7.74957 -23.2364,-50.92609 -40.3627,-108.92748 -12.0024,-40.64867 -42.9343,-151.33061 -51.8024,-185.36187 -9.2835,-35.62535 -8.265,-49.75742 4.045,-56.12312 18.3537,-9.49106 31.5359,0.22439 36.4905,26.89354 1.7406,9.36911 6.3898,28.55886 10.3319,42.64391 3.9423,14.08507 14.2461,51.40134 22.8979,82.92508 21.4969,78.32542 35.6226,122.86119 37.7507,119.01917 2.6267,-4.74232 59.6214,-159.38531 72.1805,-195.8468 19.0551,-55.31975 36.0311,-81.70558 52.568,-81.70558 11.1585,0 20.7793,7.72216 22.7575,18.26601 1.318,7.02645 -0.3248,11.59079 -10.7159,29.77173 -6.7498,11.81014 -17.2353,35.79274 -23.3007,53.29468 -18.7582,54.12491 -71.5094,195.13477 -83.548,223.33263 -12.8961,30.2064 -20.4387,38.7418 -34.2358,38.7418 -6.2918,0 -10.3205,-1.85257 -15.0565,-6.9237 z m 304.8972,-2.91099 c -61.3361,-16.06639 -103.6771,-64.33267 -109.0688,-124.33178 -7.9222,-88.15917 49.991,-189.3003 124.1007,-216.73287 42.5953,-15.76717 116.0872,-7.88249 150.4787,16.1443 34.7282,24.26237 51.6546,71.49459 47.8826,133.61685 -5.6763,93.49164 -61.2278,174.53779 -131.9847,192.55812 -20.4423,5.20617 -59.0126,4.61177 -81.4085,-1.25462 z m 87.8338,-50.55797 c 46.2289,-22.78302 80.0608,-88.62009 80.0608,-155.79919 0,-54.0825 -17.4619,-82.52076 -56.7053,-92.34956 -48.94,-12.2573 -86.7535,-3.89367 -117.9846,26.09595 -28.0862,26.96965 -46.5787,62.49666 -53.7078,103.18101 -7.3152,41.74681 -0.7095,71.19293 21.3361,95.10964 21.6966,23.53796 47.0839,33.16454 85.1816,32.29978 23.4472,-0.53224 27.0802,-1.27392 41.8192,-8.53763 z m -1316.3698,47.99525 c -10.6189,-5.40603 -11.6186,-10.63241 -13.9561,-72.96662 -2.0035,-53.42914 -1.6808,-65.80643 3.0484,-116.92077 4.8104,-51.9907 5.0181,-60.71239 2.2948,-96.33941 -2.9294,-38.32406 -2.8802,-39.3964 2.2671,-49.4575 2.8936,-5.65625 7.672,-11.57429 10.6186,-13.1512 6.842,-3.66176 61.8782,-1.12335 86.0182,3.96742 42.8421,9.03472 93.7221,44.35474 114.1237,79.22267 7.5575,12.91621 13.9924,35.94238 13.9924,50.06869 0,35.86801 -29.1408,69.67216 -75.8624,88.00277 l -16.6619,6.53707 24.4916,14.95546 c 46.1869,28.2033 85.1055,64.02803 85.1055,78.34004 0,14.40622 -15.3507,27.92847 -27.3732,24.11271 -2.9128,-0.92456 -14.1344,-9.53795 -24.9365,-19.1409 -25.0698,-22.28693 -43.4439,-35.80811 -69.9227,-51.45492 -18.0515,-10.66692 -58.293,-28.40649 -77.2442,-34.05132 l -5.5781,-1.66155 0.7002,50.0922 c 0.6683,47.80808 0.4712,50.3227 -4.3235,55.14799 -5.8788,5.91635 -19.6622,8.33196 -26.8019,4.69717 z m 83.1706,-160.74198 c 40.4556,-4.26375 69.0062,-17.57497 83.3508,-38.86104 16.5474,-24.5546 -6.0211,-63.20459 -50.5781,-86.61868 -17.7317,-9.3178 -38.172,-14.71968 -63.8252,-16.86767 l -16.2924,-1.36416 1.2267,39.52558 c 0.8082,26.03702 0.034,50.34584 -2.2714,71.23222 -1.9241,17.43866 -3.0369,32.52979 -2.4731,33.53587 1.3961,2.49106 24.1776,2.23034 50.8627,-0.58212 z m -336.8155,154.95795 -5.9866,-5.98655 0.052,-60.47544 c 0.029,-33.26147 1.6455,-84.62124 3.5914,-114.13279 1.946,-29.51157 3.5904,-70.12046 3.6542,-90.24197 0.1488,-46.85793 2.841,-66.14313 10.2591,-73.48837 4.8697,-4.82176 9.807,-5.94165 37.3188,-8.46459 55.3775,-5.07835 86.5903,4.79104 119.7412,37.86185 23.4867,23.43001 28.6292,36.75535 27.3689,70.91979 -0.781,21.16934 -1.9104,26.54083 -8.5539,40.68113 -13.6665,29.08822 -40.1366,51.93971 -73.4587,63.41627 -13.6891,4.71464 -21.3275,5.623 -47.4132,5.63821 l -31.0953,0.0171 -0.014,57.31584 c -0.01,31.90857 -1.1323,61.33833 -2.5353,66.3901 -4.5791,16.48738 -21.5524,21.92466 -32.9287,10.54838 z M 1914.0371,442.0096 c 33.2417,-9.98766 54.6864,-36.61235 54.9397,-68.21079 0.1402,-17.48135 -3.8621,-26.14937 -17.9503,-38.8772 -18.0906,-16.34374 -33.6412,-21.82447 -64.9716,-22.89888 -27.0756,-0.92846 -27.3378,-0.88422 -28.5092,4.81029 -0.6501,3.16105 -1.8572,30.99073 -2.6822,61.84372 -0.8251,30.853 -1.7152,58.29145 -1.9781,60.97432 -0.3951,4.03137 1.4267,5.14601 10.4973,6.4225 13.6728,1.92419 36.9357,0.0578 50.6544,-4.06396 z m 819.1,-178.16403 c -2.1625,-5.63574 -2.2664,-5.50496 7.6658,-9.64276 22.1732,-9.23732 34.8858,-28.95745 51.8299,-80.39969 16.295,-49.47156 31.8342,-76.737539 48.5299,-85.153025 7.8213,-3.942307 46.5883,-7.375601 46.5883,-4.126071 0,1.263169 0.6661,4.032671 1.4805,6.154524 1.2348,3.218079 -0.6866,3.867622 -11.5852,3.916178 -38.8306,0.172841 -50.6476,13.161264 -72.6194,79.818504 -6.6883,20.29058 -15.026,42.54662 -18.5281,49.45787 -8.3433,16.46424 -23.4283,32.6025 -36.2991,38.83313 -12.4176,6.01131 -15.1242,6.19237 -17.0626,1.14134 z M 887.07325,242.55561 c -10.11313,-10.60082 -42.38384,-49.22737 -50.10405,-59.97233 -12.85371,-17.88947 -8.72511,-34.3894 8.60482,-34.3894 6.50377,0 10.0855,3.36565 29.71606,27.92323 12.27647,15.3577 23.41748,28.60088 24.7578,29.42915 1.34025,0.82838 13.12494,-8.04045 26.18829,-19.70841 31.16354,-27.83465 33.41898,-29.26696 40.79513,-25.90617 9.02844,4.11364 14.03468,13.21837 11.26853,20.49383 -2.37565,6.24859 -31.2403,33.65691 -58.35114,55.40717 -17.18848,13.78977 -24.67348,15.32046 -32.87544,6.72293 z M 2699.1373,227.05402 c -3.9117,-3.91151 -0.896,-8.22581 8.7395,-12.50297 11.8671,-5.26782 26.0534,-19.98359 33.6841,-34.94146 2.881,-5.64655 11.2257,-27.92122 18.5443,-49.49902 7.3186,-21.5779 16.0565,-43.94064 19.4174,-49.695043 8.1204,-13.903455 19.6832,-26.851695 27.4945,-30.788967 7.8213,-3.942312 46.5883,-7.375607 46.5883,-4.126076 0,1.263174 0.6022,3.865818 1.3382,5.783859 1.0725,2.794961 -2.884,3.785243 -19.9272,4.987984 -20.3099,1.433352 -21.6736,1.899415 -30.3534,10.37514 -13.0029,12.696918 -20.1642,27.269112 -34.0205,69.226063 -14.3702,43.51382 -21.1709,57.75792 -34.4593,72.17389 -12.5555,13.62135 -32.301,23.75173 -37.0459,19.0066 z M 1510.8404,217.8155 c -10.1609,-10.16087 -8.1097,-17.48812 11.696,-41.7805 48.5171,-59.50825 66.6942,-70.66738 80.0052,-49.11667 6.7314,10.89813 4.4187,17.77251 -10.8492,32.25092 -7.073,6.70716 -18.9105,19.87765 -26.3057,29.26764 -27.3982,34.78913 -41.5264,42.39848 -54.5463,29.37861 z m 1154.1512,-15.15123 c -3.8411,-3.84103 -1.0016,-8.32457 7.5202,-11.87474 12.3506,-5.14533 26.5442,-19.29251 34.0207,-33.90926 3.3884,-6.62468 12.1397,-29.67298 19.4471,-51.21838 7.3077,-21.545499 16.0365,-43.881731 19.3973,-49.636135 8.1229,-13.907353 19.6853,-26.853592 27.4946,-30.784973 7.514,-3.782682 46.5883,-7.134645 46.5883,-3.996567 0,1.189722 0.6661,3.899168 1.4805,6.021026 1.2349,3.218175 -0.6866,3.867623 -11.5852,3.916174 -39.1757,0.174454 -50.5282,12.686844 -72.8581,80.302435 -14.3702,43.51381 -21.1711,57.7579 -34.4594,72.17381 -12.5555,13.62134 -32.301,23.75172 -37.046,19.00661 z"
            id="path845" />
  </g>
</svg>
