<?xml version="1.0" encoding="UTF-8" standalone="no"?>
<svg
   xmlns:dc="http://purl.org/dc/elements/1.1/"
   xmlns:cc="http://creativecommons.org/ns#"
   xmlns:rdf="http://www.w3.org/1999/02/22-rdf-syntax-ns#"
   xmlns:svg="http://www.w3.org/2000/svg"
   xmlns="http://www.w3.org/2000/svg"
   xmlns:sodipodi="http://sodipodi.sourceforge.net/DTD/sodipodi-0.dtd"
   xmlns:inkscape="http://www.inkscape.org/namespaces/inkscape"
   width="1231.6771mm"
   height="262.84158mm"
   viewBox="0 0 1231.6772 262.84156"
   version="1.1"
   id="svg8"
   inkscape:version="1.0.2-2 (e86c870879, 2021-01-15)"
   sodipodi:docname="logohnedepravo10dil.svg">
  <defs
     id="defs2" />
  <sodipodi:namedview
     id="base"
     pagecolor="#ffffff"
     bordercolor="#666666"
     borderopacity="1.0"
     inkscape:pageopacity="0.0"
     inkscape:pageshadow="2"
     inkscape:zoom="0.175"
     inkscape:cx="2590.1674"
     inkscape:cy="1474.2857"
     inkscape:document-units="mm"
     inkscape:current-layer="layer1"
     inkscape:document-rotation="0"
     showgrid="false"
     units="mm"
     inkscape:window-width="1920"
     inkscape:window-height="1009"
     inkscape:window-x="-8"
     inkscape:window-y="-8"
     inkscape:window-maximized="1" />
  <metadata
     id="metadata5">
    <rdf:RDF>
      <cc:Work
         rdf:about="">
        <dc:format>image/svg+xml</dc:format>
        <dc:type
           rdf:resource="http://purl.org/dc/dcmitype/StillImage" />
        <dc:title></dc:title>
      </cc:Work>
    </rdf:RDF>
  </metadata>
  <g
     inkscape:label="Vrstva 1"
     inkscape:groupmode="layer"
     id="layer1">
    <g
       id="g875"
       transform="translate(514.04762,260.04763)">
      <path
         id="path847"
         style="fill:#000000;stroke-width:2.56684"
         d="m 1372.0605,-864.63477 c -11.9364,-0.2145 -36.5514,2.51623 -42.4824,5.50196 -8.2187,4.13756 -20.3869,17.7639 -28.9355,32.40039 -3.5371,6.05609 -12.7233,29.56323 -20.4141,52.23828 -7.6905,22.67505 -16.9007,46.93232 -20.4668,53.9043 -7.8684,15.38309 -22.8064,30.27046 -35.8047,35.68554 -8.9685,3.73633 -11.9565,8.45562 -7.914,12.49805 4.9938,4.99393 25.7744,-5.66838 38.9882,-20.00391 13.985,-15.17174 21.142,-30.16181 36.2657,-75.95703 23.5007,-71.1606 35.448,-84.32998 76.6777,-84.51367 11.4699,-0.0511 13.493,-0.73426 12.1934,-4.12109 -0.8571,-2.2331 -1.5586,-5.08382 -1.5586,-6.33594 0,-0.82565 -2.57,-1.22537 -6.5489,-1.29688 z m 35.9825,25.47657 c -11.8607,-0.23206 -36.3539,2.5797 -42.5274,5.6914 -8.2208,4.14373 -20.3912,17.77002 -28.9375,32.40235 -3.5371,6.05609 -12.7332,29.5916 -20.4355,52.30078 -7.7024,22.70918 -16.4837,46.15108 -19.5156,52.09375 -8.0309,15.74207 -22.962,31.22947 -35.4512,36.77344 -10.1406,4.50145 -13.314,9.04158 -9.1973,13.1582 4.9938,4.99389 25.7744,-5.66643 38.9883,-20.00195 13.9849,-15.17175 21.142,-30.16378 36.2656,-75.95899 14.5828,-44.15671 22.1201,-59.49291 35.8047,-72.85547 9.1349,-8.92017 10.5704,-9.40952 31.9453,-10.91797 17.9366,-1.26584 22.0994,-2.30858 20.9707,-5.25 -0.7747,-2.01857 -1.4082,-4.75855 -1.4082,-6.08789 0,-0.85499 -2.5484,-1.2703 -6.5019,-1.34765 z m 35.9355,41.07031 c -11.8607,-0.23206 -36.3538,2.57775 -42.5273,5.68945 -17.5711,8.85672 -33.9249,37.55189 -51.0742,89.61719 -17.8324,54.13931 -31.2132,74.89361 -54.5489,84.61523 -10.4529,4.35474 -10.3424,4.21719 -8.0664,10.14844 2.0399,5.31583 4.8882,5.12531 17.9571,-1.20117 13.5455,-6.55729 29.4204,-23.54167 38.2011,-40.86914 3.6858,-7.27355 12.461,-30.69634 19.5,-52.05078 23.1237,-70.152 35.5613,-83.82211 76.4278,-84.00391 11.4699,-0.0511 13.491,-0.73426 12.1914,-4.12109 -0.8571,-2.23314 -1.5586,-5.14727 -1.5586,-6.47656 0,-0.855 -2.5484,-1.27031 -6.502,-1.34766 z m -1361.541,35.28906 c -13.631575,0.30405 -33.643687,19.31035 -68.748047,62.36719 -20.8440566,25.56601 -23.0021998,33.27713 -12.3085936,43.9707 13.7025636,13.7026 28.5715546,5.69507 57.4062496,-30.91797 7.782879,-9.88236 20.241768,-23.74393 27.685547,-30.80273 16.068514,-15.23751 18.502244,-22.4719 11.417969,-33.94141 -4.37778,-7.08769 -9.256954,-10.81398 -15.453125,-10.67578 z m -781.20312,33.06641 c -18.23853,0 -22.58223,17.36399 -9.05469,36.1914 8.12504,11.30828 42.08713,51.96056 52.73047,63.11719 8.63198,9.04827 16.50996,7.43856 34.59961,-7.07422 28.53218,-22.89055 58.90988,-51.73627 61.41015,-58.3125 2.91115,-7.65687 -2.35764,-17.2391 -11.85937,-21.56836 -7.76296,-3.53707 -10.13626,-2.03042 -42.9336,27.26368 -13.74822,12.27968 -26.15198,21.61393 -27.5625,20.74218 -1.41055,-0.87174 -13.13456,-14.80973 -26.05468,-30.97265 -20.65981,-25.84509 -24.43067,-29.38672 -31.27539,-29.38672 z M 1221.041,-634.9082 c -10.5101,-0.0107 -24.2488,1.96253 -34.207,5.64843 -54.919,20.32748 -113.3863,85.89704 -113.6172,127.41602 -0.036,6.50706 -1.3698,11.39145 -3.2695,11.97656 -41.3496,12.73546 -58.3965,31.80191 -58.3965,65.31446 0,15.5444 -0.6644,18.10777 -5.0508,19.5 -2.7777,0.88157 -11.90191,6.64688 -20.27734,12.8125 -12.08089,8.89341 -16.93959,14.68735 -23.50977,28.0332 -7.87272,15.99182 -8.2098,17.87076 -6.81055,38.05469 0.80958,11.67783 2.21032,24.2282 3.11328,27.88867 1.41517,5.73653 0.50178,7.12692 -6.62304,10.07812 -13.30326,5.51037 -31.68648,21.4516 -40.4043,35.03711 -17.79307,27.72802 -16.10846,55.01449 4.86524,78.8418 16.47734,18.71928 41.94002,29.52094 85.71288,36.36328 43.8173,6.84926 112.9964,4.51065 200.877,-6.79297 l 41.7324,-5.36719 40.4062,7.02344 c 24.0804,4.1864 50.3534,7.07846 65.0235,7.1582 21.8138,0.11868 26.2621,-0.67105 39.0781,-6.9414 27.1785,-13.29725 38.9112,-34.4758 38.6621,-69.78906 -0.2208,-31.19154 -18.6168,-60.03539 -48.3457,-75.80664 l -11.0547,-5.86524 0.3281,-27.11523 c 0.2739,-22.65589 -0.5676,-29.05392 -5.1093,-38.89649 -6.8463,-14.83653 -20.3617,-28.44486 -38.3203,-38.58008 -7.6844,-4.33678 -13.382,-8.83997 -12.6602,-10.00781 0.7218,-1.16776 2.4778,-8.26929 3.9023,-15.78125 5.8904,-31.05879 -8.191,-58.03033 -42.4453,-81.29687 l -20.5234,-13.93946 -1.4258,-17.32031 c -1.2056,-14.64155 -3.064,-19.84818 -12.0215,-33.66601 -14.239,-21.96545 -15.3465,-27.64954 -8.4844,-43.60157 3.0826,-7.16564 4.9827,-14.64862 4.2227,-16.6289 -0.9719,-2.53305 -7.1926,-3.7417 -15.3672,-3.75 z m -5.3301,10.41601 h 6.2793 l -4.1484,10.36914 c -5.6617,14.15003 -3.5298,23.93027 10.4082,47.74024 9.9034,16.91815 11.75,22.18443 11.75,33.51172 0,10.41135 -1.0606,14.00733 -4.7109,15.96093 -5.2141,2.7905 -29.6494,0.003 -43.3633,-4.94726 -13.9105,-5.02103 -15.641,-0.91414 -2.1895,5.19531 8.6621,3.93411 19.5375,6.1346 34.6524,7.01172 18.4643,1.07138 24.313,2.56299 36.1465,9.21484 22.0091,12.37191 37.4175,29.28057 42.4472,46.58203 4.2448,14.60206 3.8535,24.18484 -1.7051,41.76758 -1.4505,4.58824 -3.4138,8.31722 -4.3632,8.28321 -0.9493,-0.0327 -7.0542,-5.14231 -13.5645,-11.35547 -19.8322,-18.92659 -39.292,-21.0742 -61.7773,-6.81446 l -11.6328,7.37891 -13.8457,-4.84375 c -30.6266,-10.71073 -79.9748,-39.91797 -101.0899,-59.83203 -7.9415,-7.48993 -9.0077,-9.99407 -8.959,-21.0332 0.067,-14.85888 6.213,-29.38052 21.4844,-50.76758 13.5527,-18.98011 30.612,-35.21614 52.8984,-50.34571 17.3414,-11.77258 44.4203,-23.07617 55.2832,-23.07617 z M 20.246094,-611.03516 c -10.1722,-6.7e-4 -20.27300635,0.45402 -29.8652346,1.42969 -16.4740154,1.67565 -39.4183914,5.33178 -50.9882814,8.125 -19.125316,4.61734 -21.868444,4.73211 -30.183594,1.25781 -11.321314,-4.73034 -20.340334,-2.69672 -27.408204,6.17969 -5.07677,6.3758 -5.27013,8.49068 -3.32617,36.28906 2.40695,34.41895 1.63162,83.96382 -1.82813,116.79102 -1.33912,12.7059 -2.67262,54.86592 -2.96289,93.68945 -0.58522,78.25633 1.55432,93.85504 15.67188,114.22461 8.65383,12.48624 27.539004,20.83025 55.037108,24.31641 22.39733,2.83952 127.365079,1.09461 141.810547,-2.35742 13.083213,-3.1265 19.251955,-10.71876 19.251955,-23.69532 0,-22.43104 -8.93487,-26.44589 -49.945314,-22.4414 -15.724271,1.53539 -49.5831142,2.40505 -75.244141,1.93359 -58.521827,-1.07509 -56.611881,0.15591 -59.667969,-38.39648 -1.161071,-14.64696 -1.45291,-40.73716 -0.648437,-57.97657 l 1.46289,-31.34375 10.523438,-1.3457 c 5.788082,-0.74067 44.599026,-4.34469 86.246094,-8.00781 52.637139,-4.62981 77.517003,-7.81152 81.611328,-10.4375 14.426001,-9.25225 12.590171,-33.65857 -3.095703,-41.13867 -7.852763,-3.74468 -13.855046,-3.54415 -80.080078,2.66992 -39.374627,3.6946 -75.916096,7.30999 -81.203126,8.0332 l -9.613281,1.31445 1.353516,-58.42382 1.351562,-58.42383 12.111329,-3.16211 c 46.350538,-12.09872 96.96071,-13.28494 138.689453,-3.25195 27.775979,6.67831 30.280599,6.52607 39.179689,-2.37305 9.28365,-9.28365 10.36586,-24.39074 2.36328,-32.98047 -11.11132,-11.9266 -56.523984,-20.49514 -100.603516,-20.49805 z m -654.382814,0.53321 c -25.37884,0.011 -51.80334,2.3851 -74.79883,7.31445 -26.9966,5.78706 -30.9984,6.09013 -37.50195,2.8457 -8.93809,-4.45889 -21.40557,-2.37284 -27.76172,4.64453 -3.62729,4.00468 -4.50149,8.78003 -4.05664,22.16602 1.52307,45.83172 0.61194,121.81393 -1.66602,138.98633 -3.91702,29.5288 -5.63785,123.40088 -2.73242,149.04883 3.14627,27.77416 11.08569,50.04449 21.21875,59.51757 8.39237,7.84574 26.59781,13.94409 51.12891,17.12891 22.95012,2.97982 80.32035,3.09792 114.91992,0.23633 32.31273,-2.67251 40.65454,-6.28715 44.08008,-19.0957 2.7888,-10.42768 -2.82439,-25.14524 -11.10352,-29.11329 -5.48572,-2.62919 -12.8739,-2.72469 -36.01757,-0.46484 -16.01458,1.56374 -50.69889,2.45958 -77.07618,1.99023 -53.59234,-0.95353 -54.37663,-1.20905 -58.52734,-19.10156 -1.27419,-5.49275 -2.34489,-32.11421 -2.37891,-59.1582 l -0.0605,-49.16992 12.19336,-1.51953 c 6.7059,-0.83585 45.68969,-4.50442 86.63086,-8.15235 51.47629,-4.58661 76.2554,-7.79764 80.33007,-10.4082 8.14802,-5.22036 11.74181,-14.32267 9.78125,-24.77344 -2.04994,-10.92707 -8.54887,-17.06158 -19.84765,-18.73633 -4.76334,-0.70597 -43.29858,2.14889 -85.63477,6.34375 -42.33622,4.19486 -77.24874,7.35283 -77.58398,7.01758 -0.33528,-0.33528 0.22751,-26.4586 1.25195,-58.05273 l 1.86328,-57.44531 17.9668,-4.53711 c 46.16062,-11.65849 88.15155,-12.21408 133.62891,-1.76758 20.75179,4.76685 24.92928,5.03867 32.0625,2.08398 18.54387,-7.68113 18.72352,-33.98779 0.29492,-43.34375 -18.65312,-9.46999 -53.51137,-14.50046 -90.60352,-14.48437 z m 1030.82031,7.53125 c -7.96939,0.0338 -16.45417,0.48522 -25.56054,1.32031 -28.95425,2.65523 -34.15043,3.83362 -39.27539,8.9082 -7.80715,7.73035 -10.64041,28.02717 -10.79688,77.3418 -0.0672,21.1765 -1.79769,63.91382 -3.8457,94.97266 -2.04798,31.05879 -3.74906,85.11184 -3.7793,120.11718 l -0.0566,63.64453 6.30078,6.30079 c 11.97271,11.97271 29.8372,6.25024 34.65625,-11.10157 1.47655,-5.31658 2.66041,-36.28961 2.66797,-69.87109 l 0.0137,-60.32031 32.72657,-0.0195 c 27.45327,-0.016 35.49186,-0.9718 49.89843,-5.9336 35.06929,-12.07827 62.9276,-36.12697 77.31055,-66.74023 6.99179,-14.88167 8.18006,-20.53524 9.00195,-42.81446 1.32639,-35.95562 -4.08455,-49.98024 -28.80273,-74.63867 -29.43754,-29.36645 -57.42427,-41.34865 -100.45899,-41.16601 z m -835.69531,4.15429 c -8.32097,-0.008 -19.02013,8.15777 -24.45312,18.66407 -3.60314,6.96763 -3.99857,19.55226 -3.19141,101.80468 0.50653,51.62022 -0.0698,125.07701 -1.28125,163.23633 l -2.20117,69.38086 6.95508,8.26563 c 3.82567,4.54654 9.00305,8.26757 11.50586,8.26757 2.50272,0 11.93043,3.32939 20.94921,7.40039 9.01883,4.07101 22.75093,8.68004 30.51563,10.24219 7.7647,1.56216 16.42647,3.37641 19.25,4.03125 10.98587,2.54793 62.5372,-1.30033 79.67187,-5.94726 24.6316,-6.68013 33.72316,-10.98957 51.70899,-24.50977 24.22167,-18.20772 43.92756,-47.13362 56.09375,-82.33984 5.68244,-16.44374 7.92494,-62.11865 3.97266,-80.9043 -13.82083,-65.69102 -75.75168,-127.84837 -159.36133,-159.94336 -9.17651,-3.52252 -31.69981,-13.43299 -50.05274,-22.02344 -18.35293,-8.59048 -36.39007,-15.62243 -40.08203,-15.625 z m -1071.35548,0.006 c -5.3948,-0.12587 -10.905,1.87946 -15.7363,6.03516 -6.914,5.94716 -7.0641,6.7147 -8.9375,45.5625 -1.048,21.73187 -1.9629,72.43267 -2.0332,112.66797 -0.071,40.73646 -2.052,101.03766 -4.4707,136.07422 -2.3889,34.6055 -3.5436,66.11071 -2.5645,70.01172 0.9791,3.901 4.062,9.37252 6.8496,12.16015 7.3342,7.33267 23.0547,6.82621 30.3887,-0.98047 6.626,-7.05316 6.5035,-6.24936 12.3457,-80.66992 4.2051,-53.56698 4.8219,-57.27533 9.7207,-58.4082 9.5247,-2.20263 97.232,-18.92862 120.7402,-23.02539 12.7059,-2.21431 34.3623,-4.73381 48.127,-5.59766 l 25.0273,-1.57031 -0.029,24.13086 c -0.047,36.57713 5.2512,123.45528 7.9375,130.14648 1.3048,3.24987 6.4116,7.59691 11.3497,9.66016 7.7835,3.25206 10.1367,3.2677 17.6816,0.11523 13.1962,-5.51372 14.8982,-13.84364 11.8769,-58.09961 -3.2339,-47.37123 -3.1634,-101.56258 0.1758,-135.98046 1.4382,-14.82354 3.6175,-54.67232 4.8438,-88.55469 1.2263,-33.88233 2.995,-64.5782 3.9297,-68.21289 1.2908,-5.01978 0.024,-8.59983 -5.2696,-14.89063 -6.057,-7.19841 -8.3344,-8.18142 -17.4121,-7.50976 -8.6883,0.64286 -11.2601,2.17382 -15.2929,9.10351 -8.754,15.04184 -12.016,33.89547 -12.3301,71.24219 -0.1662,19.76474 -1.0477,46.33124 -1.957,59.03711 l -1.6524,23.10156 -24.4941,1.74805 c -27.0766,1.93251 -65.2954,7.89471 -133.7911,20.87305 l -45.3437,8.59179 -1.8457,-27.07812 c -1.018,-14.93545 -0.5329,-50.13811 1.082,-78.4961 4.2537,-74.69661 4.1765,-76.38607 -3.8711,-84.43359 -4.3704,-4.3704 -9.6501,-6.62803 -15.0449,-6.75391 z m 361.2637,0.41211 c -4.0298,0.0691 -8.0507,1.7723 -12.6973,4.60547 -15.5538,9.48371 -17.0468,16.12898 -13.209,58.78125 3.7692,41.88809 4.6199,190.95478 1.4942,261.75391 l -1.9629,44.49414 8.7656,8.76758 c 15.6101,15.61013 31.9787,10.39894 38.7285,-12.33008 3.2856,-11.06381 3.9199,-33.72489 3.9199,-139.79688 0,-69.62611 0.9329,-126.59375 2.0723,-126.59375 1.1395,0 7.722,7.79674 14.627,17.32618 71.4686,98.63194 187.6847,232.50381 219.31247,252.63085 23.85588,15.18127 41.32827,6.40094 45.51171,-22.87109 1.16225,-8.13222 2.11329,-70.80678 2.11329,-139.27734 0,-108.91299 -0.56719,-127.27795 -4.53516,-146.74414 -5.50001,-26.9822 -10.49008,-39.6548 -19.28516,-48.97852 -12.79525,-13.56435 -36.63545,-6.71547 -40.05078,11.50586 -0.97009,5.17542 0.80638,18.21571 4.63867,34.05469 8.8656,36.64165 11.7619,73.26435 13.29688,168.1289 l 1.34961,83.42188 -35.75,-36.34766 C -983.62462,-389.7784 -1032.876,-450.5519 -1095.4062,-541.369 c -29.4316,-42.74552 -41.6079,-57.2366 -53.6973,-57.0293 z m 2859.4355,4.70899 c -17.4037,0 -35.2702,27.76817 -55.3242,85.98828 -13.2177,38.37313 -73.2004,201.12429 -75.9648,206.11523 -2.2396,4.04345 -17.1066,-42.82778 -39.7305,-125.25976 -9.1054,-33.17647 -19.9489,-72.44795 -24.0977,-87.27149 -4.1487,-14.82353 -9.043,-35.02052 -10.875,-44.88086 -5.2142,-28.0673 -19.0863,-38.29142 -38.4023,-28.30273 -12.9554,6.69944 -14.028,21.57326 -4.2578,59.0664 9.333,35.81553 41.8859,152.30025 54.5176,195.08008 18.0243,61.04236 34.8636,106.48084 42.4804,114.63672 4.9844,5.337 9.224,7.28711 15.8457,7.28711 14.5204,0 22.4591,-8.98146 36.0313,-40.77148 12.6697,-29.67625 68.1861,-178.08031 87.9277,-235.04297 6.3835,-18.41953 17.4178,-43.65854 24.5215,-56.08789 10.9357,-19.13413 12.6645,-23.93915 11.2773,-31.33399 -2.0819,-11.09665 -12.2056,-19.22265 -23.9492,-19.22265 z m -1100.15231,0.46875 c -9.61649,0.047 -16.82007,0.61407 -19.07031,1.81836 -3.10096,1.65959 -8.13032,7.889 -11.17579,13.84179 -5.41716,10.58861 -5.4678,11.71744 -2.38476,52.05078 2.86605,37.49492 2.64655,46.67219 -2.41602,101.38868 -4.97718,53.79423 -5.31563,66.8204 -3.20703,123.05078 2.46006,65.60228 3.51193,71.10349 14.6875,76.79297 7.51408,3.82533 22.01998,1.28318 28.20703,-4.94336 5.04605,-5.07829 5.2522,-7.72448 4.54883,-58.03907 l -0.73633,-52.71875 5.8711,1.74805 c 19.94468,5.94078 62.29509,24.61171 81.29297,35.83789 27.86709,16.46714 47.20552,30.69694 73.58984,54.15235 11.36844,10.10638 23.17849,19.17153 26.24414,20.14453 12.65272,4.01582 28.80859,-10.21549 28.80859,-25.37696 0,-15.0624 -40.95997,-52.76531 -89.56836,-82.44726 l -25.77539,-15.74024 17.53516,-6.8789 c 49.1712,-19.29166 79.83984,-54.86867 79.83984,-92.61719 0,-14.86696 -6.77296,-39.09995 -14.72656,-52.69336 -21.47119,-36.696 -75.01917,-73.86853 -120.10742,-83.37695 -17.46636,-3.6834 -50.30075,-6.09752 -71.45703,-5.99414 z m -233.25,35.43945 c 4.28353,-0.0448 10.43321,0.16143 19.33789,0.4668 32.97305,1.13072 49.33788,6.89898 68.37695,24.09961 14.82679,13.39513 19.03998,22.51814 18.89258,40.91601 -0.26653,33.25512 -22.83561,61.27583 -57.82031,71.78711 -14.43772,4.33792 -38.92084,6.30042 -53.31055,4.27539 -9.54618,-1.34347 -11.46262,-2.51506 -11.04687,-6.75781 0.27673,-2.82353 1.21372,-31.70127 2.08203,-64.17188 0.8683,-32.47056 2.13794,-61.75916 2.82226,-65.08593 0.84753,-4.12025 1.24224,-5.43071 10.66602,-5.5293 z m 247.38672,13.08789 17.14648,1.43555 c 26.99838,2.26061 48.51042,7.94563 67.17188,17.75195 46.89312,24.64165 70.64536,65.31817 53.23046,91.16016 -15.09671,22.40205 -45.14394,36.41111 -87.7207,40.89843 -28.08416,2.9599 -52.06004,3.23495 -53.5293,0.61329 -0.59338,-1.05884 0.57668,-16.94199 2.60157,-35.29493 2.42456,-21.98143 3.24109,-47.56465 2.39062,-74.96679 z m -1043.15625,7.48047 c 1.78836,-0.0173 56.03574,25.06991 78.61328,36.35547 63.29484,31.63831 97.00703,69.02373 104.83398,116.25781 5.53433,33.39859 -6.88089,71.53997 -31.89648,97.99023 -15.5864,16.48033 -26.19519,22.54068 -48.7793,27.86524 -21.60476,5.09363 -66.48307,4.87147 -81.57812,-0.4043 -24.06875,-8.41213 -21.81836,6.50742 -21.81836,-144.64258 0,-73.37911 0.28106,-133.4193 0.625,-133.42187 z m 1498.51954,59.03125 c 3.8125,0 13.0306,5.19387 22.6953,12.78906 27.781,21.83203 63.0153,41.34399 97.1348,53.78906 l 6.998,2.55274 -6.5644,13.06836 c -8.7802,17.48099 -10.9736,44.75677 -5.1954,64.63281 2.3002,7.91184 4.1817,15.07447 4.1817,15.91602 0,0.84151 -1.4423,1.49463 -3.207,1.45117 -2.4994,-0.0615 -33.9086,-12.67744 -54.8399,-22.02735 -1.6327,-0.72933 -3.4078,-10.86608 -4.1348,-23.61718 -0.9771,-17.14095 -2.796,-25.3233 -7.8183,-35.1543 -11.1856,-21.89582 -31.8662,-37.28311 -49.916,-37.14063 -10.7987,0.0852 -26.5355,8.25558 -37.4492,19.44336 -9.4224,9.65893 -9.9071,9.83879 -13.4766,5.03516 -5.5005,-7.40198 -4.7851,-31.71194 1.2226,-41.56445 8.6629,-14.20691 34.504,-29.17383 50.3692,-29.17383 z m 170.4297,51.44726 c 17.0041,0.29846 32.9435,11.92196 44.1465,33.25782 5.2012,9.90546 6.0644,15.20858 6.0644,37.2207 0,23.96765 -0.5278,26.60296 -7.9668,39.78516 -4.4365,7.86194 -12.5549,17.37063 -18.3203,21.45898 -21.8916,15.52384 -47.6672,9.60245 -64.125,-14.73242 -10.3459,-15.2979 -13.5028,-26.52677 -13.5293,-47.98047 -0.025,-29.53028 12.4039,-53.29811 33.5,-64.06055 6.7596,-3.4485 13.5767,-5.066 20.2305,-4.94922 z m -170.5235,0.32227 c 13.1694,0.0256 26.36,6.49057 37.045,19.38672 18.0236,21.7533 20.9038,64.53477 6.1152,90.84766 -4.2915,7.63532 -12.4052,17.1113 -18.1231,21.16601 -35.4191,25.11636 -77.4636,-7.46406 -77.6152,-60.14648 -0.067,-22.84626 4.7197,-38.73182 15.666,-52.01172 10.5961,-12.85486 23.7428,-19.26777 36.9121,-19.24219 z m -52.5839,27.88477 c 0.6093,0.028 1.0588,0.17208 1.3261,0.43945 0.4236,0.42353 -0.9417,7.12 -3.0332,14.88281 -11.4913,42.64932 8.0544,89.22419 41.5274,98.95508 11.3891,3.31037 14.4762,3.30714 25.7246,-0.0332 15.3461,-4.55736 29.3712,-17.94551 37.0664,-35.38282 l 5.375,-12.17968 9.5117,4.15625 c 5.2312,2.28495 22.1167,9.17374 37.5234,15.30859 15.407,6.13485 31.0005,13.93557 34.6524,17.33594 13.4045,12.48079 27.9951,15.94881 45.25,10.75586 16.1272,-4.8536 93.7206,-2.52516 105.1328,3.15429 16.7114,8.31674 32.6137,22.23782 39.8887,34.92188 6.7775,11.81658 7.5477,15.47544 7.5742,35.72656 0.034,32.2088 -8.5413,47.01582 -33.1953,57.31836 -9.3205,3.89488 -39.7651,6.47625 -52.7696,4.47461 -171.7383,-26.43352 -278.4744,-63.67536 -331.19332,-115.55859 -19.8901,-19.57486 -27.81849,-37.08872 -28.86523,-63.76953 -0.74722,-19.04599 -0.22978,-21.52181 7.13867,-34.15235 5.68312,-9.74162 12.27614,-16.41652 23.16016,-23.45117 11.86662,-7.6698 23.93952,-13.09817 28.20512,-12.90234 z m 273.9433,2.4707 9.6055,4.01367 c 26.4369,11.04612 43.1567,30.04787 46.2539,52.56641 1.8702,13.5993 -0.3599,36.78257 -4.25,44.18164 -1.9898,3.78478 -5.6804,4.41915 -23.4473,4.0293 -30.6748,-0.67306 -45.4707,-2.10762 -45.4707,-4.41211 0,-1.11565 2.2036,-4.02383 4.8965,-6.46094 2.6931,-2.43712 7.5465,-10.41158 10.7871,-17.72266 6.4215,-14.48783 8.191,-44.30345 3.8731,-65.27929 z m -222.375,0.53125 c -2.4627,0.10871 -4.9667,0.82834 -7.4433,2.23437 -12.9613,7.3584 -17.2227,16.52325 -17.2227,37.03516 0,20.4864 4.4855,30.16217 16.9316,36.52148 16.3426,8.35015 33.1211,-10.1403 33.1211,-36.49804 0,-22.68941 -12.0881,-39.88003 -25.3867,-39.29297 z m 168.4785,2.14453 c -12.9466,0.046 -23.0504,12.95339 -24.498,32.9668 -1.3237,18.29764 2.7045,31.80038 11.5644,38.76953 19.8733,15.63246 40.8567,-4.71156 38.7637,-37.58203 -1.1558,-18.15417 -7.1237,-28.81103 -18.3809,-32.82032 -2.5556,-0.91018 -5.0516,-1.34249 -7.4492,-1.33398 z m -278.61716,112.87109 c 2.40227,-0.0132 12.79797,8.38738 23.10156,18.66993 38.7881,38.70893 99.1801,66.90853 198.4141,92.64843 37.8157,9.80886 38.7821,8.88254 -16.6856,15.96485 -18.2603,2.33159 -58.6294,4.51623 -93.6894,5.07031 -66.4668,1.05044 -88.97226,-1.57442 -122.77738,-14.32031 -45.05011,-16.98569 -57.60101,-57.89003 -28.27539,-92.15039 9.50419,-11.10354 32.2292,-25.84048 39.91211,-25.88282 z m 279.41796,15.64454 c -4.6768,-0.0466 -11.7393,0.56124 -22.9394,1.80664 -34.6525,3.85322 -94.4939,3.93875 -123.836,0.17578 -40.8277,-5.23593 -45.795,1.71808 -19.5293,27.3457 18.4117,17.96478 42.4351,30.88764 63.4824,34.15039 37.5532,5.82157 80.499,-9.61206 106.3399,-38.21484 9.9442,-11.00716 11.4594,-17.86927 5.1055,-23.14258 -1.6549,-1.37348 -3.9463,-2.0745 -8.6231,-2.12109 z m -170.1133,5.14453 c 3.9023,0.0488 9.9139,0.52347 19.1621,1.3164 33.7135,2.88994 95.8962,2.89088 129.5801,0.002 23.6358,-2.02708 26.4342,-1.81436 27.9453,2.12304 1.1795,3.07386 -1.87,7.97831 -10.25,16.48633 -15.4613,15.69729 -34.9907,27.35317 -54.125,32.30469 -26.8613,6.95112 -53.0859,3.36051 -79.205,-10.84375 -16.1306,-8.77225 -40.2559,-31.30672 -40.2559,-37.60156 0,-2.76957 0.6446,-3.8685 7.1484,-3.78711 z"
         transform="scale(0.26458333)"
         inkscape:export-xdpi="162"
         inkscape:export-ydpi="162" />
      <text
         xml:space="preserve"
         style="font-style:normal;font-variant:normal;font-weight:normal;font-stretch:normal;font-size:124.328px;line-height:0.5;font-family:'Comic Sans MS';-inkscape-font-specification:'Comic Sans MS';fill:#000000;fill-opacity:1;stroke:none;stroke-width:1.82576;stroke-linecap:round;stroke-linejoin:round"
         x="457.23355"
         y="-59.64856"
         id="text870"
         inkscape:export-xdpi="162"
         inkscape:export-ydpi="162"><tspan
           sodipodi:role="line"
           id="tspan868"
           x="457.23355"
           y="-59.64856"
           style="fill:#000000;fill-opacity:1;stroke:none;stroke-width:1.82576">10</tspan></text>
    </g>
  </g>
</svg>
