<?xml version="1.0" encoding="UTF-8" standalone="no"?>
<svg
   xmlns:dc="http://purl.org/dc/elements/1.1/"
   xmlns:cc="http://creativecommons.org/ns#"
   xmlns:rdf="http://www.w3.org/1999/02/22-rdf-syntax-ns#"
   xmlns:svg="http://www.w3.org/2000/svg"
   xmlns="http://www.w3.org/2000/svg"
   xmlns:sodipodi="http://sodipodi.sourceforge.net/DTD/sodipodi-0.dtd"
   xmlns:inkscape="http://www.inkscape.org/namespaces/inkscape"
   width="85.599998mm"
   height="53.98mm"
   viewBox="0 0 85.599998 53.98"
   version="1.1"
   id="svg8"
   inkscape:version="1.0.2-2 (e86c870879, 2021-01-15)"
   sodipodi:docname="hnedypravologohalloween.svg">
  <defs
     id="defs2" />
  <sodipodi:namedview
     id="base"
     pagecolor="#ffffff"
     bordercolor="#666666"
     borderopacity="1.0"
     inkscape:pageopacity="0.0"
     inkscape:pageshadow="2"
     inkscape:zoom="1.979899"
     inkscape:cx="107.44457"
     inkscape:cy="126.27562"
     inkscape:document-units="mm"
     inkscape:current-layer="layer1"
     inkscape:document-rotation="0"
     showgrid="false"
     inkscape:window-width="1920"
     inkscape:window-height="1009"
     inkscape:window-x="-8"
     inkscape:window-y="-8"
     inkscape:window-maximized="1" />
  <metadata
     id="metadata5">
    <rdf:RDF>
      <cc:Work
         rdf:about="">
        <dc:format>image/svg+xml</dc:format>
        <dc:type
           rdf:resource="http://purl.org/dc/dcmitype/StillImage" />
        <dc:title></dc:title>
      </cc:Work>
    </rdf:RDF>
  </metadata>
  <g
     inkscape:label="Vrstva 1"
     inkscape:groupmode="layer"
     id="layer1">
    <path
       style="fill:#000000;stroke-width:0.0215975"
       d="m 62.488805,34.522797 c -1.73886,-0.128566 -2.836826,-0.552746 -3.714774,-1.435148 -1.22241,-1.228611 -1.684003,-3.116338 -1.209438,-4.946116 0.104405,-0.402563 0.186819,-0.625851 0.366656,-0.993487 0.253623,-0.518455 0.528981,-0.899822 0.913878,-1.265713 0.518699,-0.493091 1.170818,-0.834966 1.885839,-0.988657 0.303789,-0.0653 0.725973,-0.110136 1.03912,-0.11036 l 0.274765,-1.62e-4 0.03546,-0.121959 c 0.02766,-0.09524 0.03317,-0.181592 0.02503,-0.394155 -0.0092,-0.240762 -0.02096,-0.307026 -0.101647,-0.573824 -0.109886,-0.363482 -0.161283,-0.468112 -0.290766,-0.591988 -0.07967,-0.07621 -0.09879,-0.108815 -0.09879,-0.168411 0,-0.158682 0.233134,-0.255421 0.615528,-0.255421 0.192393,0 0.230673,0.0068 0.350621,0.06219 0.294422,0.135987 0.549555,0.533353 0.751578,1.170577 0.126421,0.398742 0.277463,0.761443 0.345395,0.829374 l 0.05438,0.05442 0.447653,0.0023 c 0.477789,0.0025 0.692402,0.02474 1.006601,0.104624 0.455967,0.115932 1.09911,0.408596 1.536014,0.698971 0.940018,0.624746 1.447951,1.348234 1.748431,2.490411 0.264194,1.004258 0.297282,2.098051 0.08733,2.886846 -0.07373,0.277079 -0.226219,0.659636 -0.379077,0.95109 -0.769759,1.467734 -2.120372,2.330091 -4.015992,2.564188 -0.323074,0.0399 -1.304638,0.05777 -1.673805,0.03047 z m 1.749398,-0.20291 c 1.878237,-0.264917 3.164124,-1.13655 3.873698,-2.625769 0.308022,-0.646457 0.41219,-1.121133 0.412987,-1.88189 6.79e-4,-0.605414 -0.0582,-1.08025 -0.204152,-1.646893 -0.221765,-0.861177 -0.544304,-1.445532 -1.075271,-1.948135 -0.658211,-0.623053 -1.705289,-1.139163 -2.51052,-1.237452 -0.226033,-0.02759 -0.766714,-0.03203 -0.766714,-0.0063 0,0.0097 0.03037,0.0461 0.06753,0.08099 0.0862,0.08091 0.191596,0.223677 0.191596,0.25951 0,0.114173 -0.23052,0.130976 -0.421149,0.0307 -0.160281,-0.08432 -0.183578,-0.08314 -0.183578,0.0093 0,0.04072 -0.01527,0.08932 -0.03394,0.107987 -0.06651,0.06653 -0.33221,0.02186 -0.51869,-0.0872 -0.113169,-0.06618 -0.232226,-0.06848 -0.276453,-0.0053 -0.05158,0.07365 -0.147318,0.12622 -0.229189,0.12586 -0.09526,-4.08e-4 -0.232599,-0.06295 -0.300735,-0.136917 -0.06584,-0.07144 -0.114653,-0.07168 -0.207274,-10e-4 -0.100375,0.07656 -0.259765,0.121927 -0.36669,0.104373 -0.09797,-0.01609 -0.248371,-0.08632 -0.248371,-0.115985 0,-0.0249 0.15016,-0.145023 0.292811,-0.234233 0.06007,-0.03758 0.132971,-0.09409 0.161978,-0.125603 l 0.05277,-0.05729 -0.298962,0.01497 c -0.344504,0.01725 -0.768724,0.07545 -1.022865,0.140339 -0.929489,0.237321 -1.709395,0.796123 -2.263014,1.621454 -0.158814,0.236758 -0.419962,0.769047 -0.518368,1.05659 -0.195736,0.571885 -0.271448,1.00473 -0.286202,1.636156 -0.01688,0.721563 0.04938,1.211496 0.241626,1.786612 0.444073,1.328583 1.380927,2.313475 2.649235,2.7851 0.445702,0.165734 1.113059,0.307708 1.682128,0.357856 0.148479,0.01308 0.303984,0.02748 0.345556,0.03198 0.04157,0.0045 0.396316,0.0056 0.788314,0.0025 0.526937,-0.0042 0.780271,-0.0152 0.971884,-0.04223 z m -2.069027,-1.676632 c -0.680973,-0.119898 -1.309914,-0.489712 -1.738131,-1.02201 -0.138977,-0.172761 -0.40435,-0.666751 -0.385117,-0.716885 0.0099,-0.02577 0.132419,-0.03075 0.757593,-0.03075 h 0.745792 v 0.302365 0.302365 h 0.323964 0.323965 v -0.302362 -0.302365 h 0.766705 0.766713 v 0.302365 0.302365 h 0.302364 0.302364 v -0.302365 -0.302365 h 0.755913 0.755914 v 0.05481 c 0,0.07024 -0.133574,0.417288 -0.219975,0.571519 -0.133879,0.238979 -0.424518,0.556205 -0.6515,0.711095 -0.147572,0.100695 -0.553136,0.289084 -0.766239,0.355927 -0.239658,0.07517 -0.511496,0.12084 -0.719245,0.12084 H 63.320312 V 32.39624 32.104674 h -0.331473 -0.331473 l -0.01459,0.272833 c -0.0076,0.150058 -0.01977,0.281262 -0.02613,0.291566 -0.01807,0.02918 -0.192173,0.01912 -0.447441,-0.02582 z m 0.360123,-0.130926 c 0.0076,-0.03712 0.01349,-0.168327 0.01349,-0.291568 v -0.224074 h 0.44275 0.442749 v 0.291567 0.291566 h 0.127202 c 0.378466,0 1.034471,-0.22757 1.392532,-0.483077 0.162029,-0.115621 0.405691,-0.369236 0.518402,-0.539581 0.08348,-0.126222 0.213332,-0.404079 0.241143,-0.516164 l 0.01476,-0.0594 H 65.08286 64.443398 v 0.302365 0.302365 h -0.410357 -0.410349 v -0.302365 -0.302365 h -0.658728 -0.65872 v 0.302821 0.302823 l -0.426554,-0.0059 -0.426545,-0.0059 -0.0059,-0.296967 -0.0059,-0.296966 h -0.625717 c -0.344148,0 -0.625717,0.0058 -0.625717,0.01277 0,0.007 0.04564,0.101158 0.101444,0.20919 0.179811,0.348149 0.458996,0.649897 0.83652,0.904121 0.344258,0.231822 0.655878,0.359141 1.049004,0.428589 0.326645,0.0577 0.33748,0.05697 0.353659,-0.02394 z m -0.440051,-2.38696 c 0,-0.03327 0.833305,-1.453674 0.84973,-1.4484 0.01468,0.0048 0.382572,0.629189 0.79472,1.348946 l 0.0649,0.113386 h -0.854694 c -0.470076,0 -0.854685,-0.0063 -0.854685,-0.01393 z m 1.50823,-0.114669 c -0.02656,-0.07594 -0.658016,-1.139781 -0.66958,-1.127992 -0.0076,0.0081 -0.15732,0.262569 -0.331922,0.565474 -0.174602,0.302905 -0.32175,0.558025 -0.326976,0.566934 -0.0051,0.0089 0.29315,0.0162 0.663081,0.0162 0.417662,0 0.669868,-0.0078 0.665397,-0.02062 z m -4.164719,-0.831133 c 0,-0.01617 1.06352,-1.857264 1.088574,-1.88447 0.01765,-0.01917 0.16275,0.215348 0.569035,0.91975 0.299937,0.520013 0.545339,0.951934 0.545339,0.959822 0,0.0079 -0.495665,0.01434 -1.101478,0.01434 -0.605805,0 -1.10147,-0.0042 -1.10147,-0.0094 z m 1.96122,-0.224028 C 60.806813,27.9242 60.542772,27.48715 60.521138,27.510747 c -0.01315,0.01433 -0.158033,0.259308 -0.321996,0.544395 -0.163955,0.285087 -0.364314,0.632538 -0.445244,0.772112 l -0.147148,0.25377 h 0.929337 0.929336 z m 2.925561,0.120087 c 0.02918,-0.05049 0.2791,-0.483468 0.555384,-0.962185 0.438931,-0.760517 0.505692,-0.865484 0.528871,-0.831503 0.01459,0.02139 0.247786,0.422785 0.518224,0.89199 0.270438,0.469206 0.510817,0.884689 0.534174,0.923294 l 0.04251,0.07019 H 65.38261 64.266531 Z m 1.977627,-0.03436 c -0.0392,-0.09883 -0.914718,-1.577207 -0.926579,-1.564546 -0.02223,0.02373 -0.905615,1.555719 -0.905615,1.570562 0,0.0067 0.413862,0.01215 0.919699,0.01215 0.505828,0 0.916449,-0.0081 0.912495,-0.01816 z m -3.586775,-3.739801 c 0.0767,-0.07372 0.103658,-0.08639 0.183688,-0.08639 0.05625,0 0.136501,0.02124 0.200615,0.05314 0.235475,0.117127 0.419986,0.154549 0.419986,0.08518 0,-0.01895 -0.02053,-0.06325 -0.04556,-0.09843 -0.02503,-0.03518 -0.03877,-0.0707 -0.03054,-0.07893 0.04098,-0.04089 0.248024,-0.01051 0.383794,0.05633 0.131495,0.06473 0.275444,0.09152 0.275444,0.05125 0,-0.01683 -0.191604,-0.204534 -0.455773,-0.446493 -0.101418,-0.09288 -0.130807,-0.139399 -0.210175,-0.332563 -0.05073,-0.123515 -0.144094,-0.381587 -0.207453,-0.573491 -0.124291,-0.376517 -0.201497,-0.546824 -0.349348,-0.770612 -0.219721,-0.332567 -0.451947,-0.430887 -0.861405,-0.3647 -0.164378,0.02657 -0.291572,0.08274 -0.291572,0.128769 0,0.01948 0.04302,0.0776 0.09552,0.129169 0.112516,0.110419 0.177334,0.246317 0.278931,0.584766 0.105347,0.350952 0.122323,0.447993 0.122035,0.697583 -4.92e-4,0.437267 -0.131087,0.688665 -0.462187,0.889834 -0.07822,0.04751 -0.142209,0.09324 -0.142235,0.101609 -2.5e-5,0.0084 0.03334,0.02148 0.07415,0.02914 0.08943,0.01677 0.21368,-0.02001 0.3096,-0.09165 0.09763,-0.07292 0.20008,-0.08626 0.283606,-0.03691 0.03682,0.02174 0.06694,0.0473 0.06694,0.05679 0,0.03271 0.14053,0.102853 0.206222,0.102933 0.04751,6.6e-5 0.0909,-0.02399 0.155751,-0.08631 z"
       id="path847"
       inkscape:export-xdpi="162"
       inkscape:export-ydpi="162" />
    <path
       id="path867"
       style="fill:#000000;stroke-width:0.0578454"
       d="m 38.937382,21.073823 c -0.3072,0.0069 -0.758179,0.435171 -1.549284,1.405484 -0.469729,0.576147 -0.518368,0.749921 -0.277378,0.990908 0.308794,0.308797 0.643872,0.128299 1.293684,-0.6968 0.175391,-0.222705 0.456121,-0.53504 0.623868,-0.694115 0.362117,-0.343387 0.416958,-0.506419 0.257313,-0.764892 -0.09866,-0.159725 -0.208572,-0.243699 -0.348203,-0.240585 z m -17.604915,0.745173 c -0.411011,0 -0.5089,0.391308 -0.20405,0.815596 0.183103,0.254839 0.948459,1.170965 1.188312,1.422386 0.194531,0.203909 0.37206,0.167588 0.779728,-0.159466 0.642991,-0.515853 1.32757,-1.165867 1.383913,-1.314065 0.06558,-0.172554 -0.05311,-0.388494 -0.267257,-0.486057 -0.174941,-0.07971 -0.228425,-0.04575 -0.967531,0.614404 -0.30983,0.27673 -0.589355,0.487083 -0.621144,0.467439 -0.03182,-0.01965 -0.295993,-0.333747 -0.587157,-0.697989 -0.46558,-0.582435 -0.550565,-0.662248 -0.704814,-0.662248 z m 16.203389,2.674918 c -0.229231,-1.5e-5 -0.456867,0.01023 -0.673032,0.03222 -0.371255,0.03776 -0.888359,0.120154 -1.149099,0.183101 -0.431,0.104056 -0.492772,0.106642 -0.68016,0.02835 -0.255132,-0.106603 -0.458385,-0.06077 -0.617657,0.139262 -0.114416,0.143683 -0.118768,0.191343 -0.075,0.817798 0.05421,0.775652 0.03674,1.892178 -0.04123,2.63196 -0.0302,0.286335 -0.06015,1.236439 -0.06668,2.111352 -0.01315,1.763556 0.03504,2.115083 0.353183,2.574124 0.195015,0.281385 0.620601,0.469424 1.240294,0.547986 0.504735,0.06399 2.870254,0.02467 3.195787,-0.05313 0.294839,-0.07046 0.433859,-0.241554 0.433859,-0.533989 0,-0.5055 -0.201353,-0.595974 -1.125548,-0.505732 -0.354362,0.0346 -1.117436,0.0542 -1.695719,0.04357 -1.318831,-0.02423 -1.27574,0.0035 -1.344614,-0.865289 -0.02613,-0.330079 -0.03275,-0.918039 -0.01459,-1.306539 l 0.033,-0.706352 0.237155,-0.03037 c 0.130443,-0.01669 1.005065,-0.09787 1.943615,-0.180417 1.186209,-0.104334 1.746895,-0.176038 1.83916,-0.235216 0.325101,-0.208506 0.283681,-0.758518 -0.06982,-0.927086 -0.176969,-0.08439 -0.312188,-0.07987 -1.804612,0.06017 -0.887332,0.08326 -1.710821,0.164735 -1.829963,0.181034 l -0.21664,0.02962 0.03046,-1.316619 0.03046,-1.316618 0.27289,-0.07126 c 1.044542,-0.272653 2.185114,-0.299385 3.125505,-0.07328 0.625946,0.1505 0.682391,0.147068 0.882937,-0.05348 0.209209,-0.209212 0.2336,-0.54966 0.05328,-0.743236 -0.250399,-0.268774 -1.273798,-0.461871 -2.267163,-0.461936 z m -14.74698,0.01201 c -0.571928,2.48e-4 -1.167416,0.05375 -1.68564,0.164836 -0.608384,0.130414 -0.698519,0.137243 -0.845081,0.06413 -0.201429,-0.100484 -0.482438,-0.05348 -0.625674,0.104668 -0.0817,0.09025 -0.101402,0.197863 -0.09137,0.499525 0.03428,1.032846 0.01374,2.745155 -0.03758,3.132146 -0.08827,0.665451 -0.127049,2.780873 -0.0616,3.358866 0.07093,0.625909 0.249822,1.127828 0.478179,1.341311 0.189119,0.176809 0.599391,0.314239 1.152222,0.386011 0.517188,0.06714 1.810067,0.06982 2.589786,0.0053 0.728188,-0.06023 0.916178,-0.141684 0.993374,-0.430334 0.06287,-0.234995 -0.06363,-0.566664 -0.25022,-0.656086 -0.12363,-0.05925 -0.290164,-0.0614 -0.811722,-0.01048 -0.360904,0.03524 -1.142532,0.05543 -1.73696,0.04485 -1.207741,-0.02149 -1.22537,-0.02725 -1.318907,-0.430466 -0.02876,-0.123783 -0.05286,-0.723714 -0.05362,-1.333168 l -0.0017,-1.108075 0.274782,-0.03424 c 0.151126,-0.01883 1.029651,-0.101509 1.952285,-0.183718 1.160052,-0.103362 1.718465,-0.175724 1.810288,-0.234556 0.18362,-0.117643 0.264609,-0.322769 0.220424,-0.558285 -0.04615,-0.246248 -0.192656,-0.384494 -0.44728,-0.422235 -0.10734,-0.01591 -0.975761,0.04843 -1.929837,0.142961 -0.954067,0.09453 -1.740845,0.1657 -1.748396,0.158145 -0.0076,-0.0076 0.0051,-0.596305 0.02825,-1.308299 l 0.042,-1.294523 0.404894,-0.102247 c 1.040265,-0.26273 1.986552,-0.275252 3.011419,-0.03983 0.467651,0.107424 0.56179,0.113549 0.722546,0.04697 0.4179,-0.173098 0.421904,-0.765936 0.0068,-0.976779 -0.42036,-0.213411 -1.205917,-0.326776 -2.041809,-0.326414 z m 23.230242,0.169721 c -0.1796,7.62e-4 -0.370805,0.01094 -0.576026,0.02975 -0.652501,0.05984 -0.769598,0.08639 -0.885092,0.200751 -0.175943,0.174209 -0.239794,0.63161 -0.243315,1.742948 -0.0017,0.477224 -0.04055,1.440338 -0.08666,2.140269 -0.04615,0.699931 -0.0845,1.91805 -0.08521,2.706918 l -8.49e-4,1.43427 0.14199,0.141992 c 0.26981,0.269813 0.672354,0.140853 0.780958,-0.250181 0.03326,-0.119814 0.05998,-0.817809 0.06015,-1.57459 l 3.06e-4,-1.359356 0.737511,-4.4e-4 c 0.618684,-3.6e-4 0.799836,-0.0219 1.124495,-0.133717 0.790308,-0.272193 1.418112,-0.814144 1.742246,-1.504034 0.157566,-0.335367 0.184342,-0.462775 0.202863,-0.964851 0.02986,-0.810283 -0.09204,-1.126337 -0.649091,-1.682031 -0.663395,-0.661791 -1.294092,-0.931818 -2.263906,-0.927702 z m -18.832925,0.09362 c -0.187523,-1.8e-4 -0.428632,0.18384 -0.551074,0.420607 -0.08119,0.15702 -0.09011,0.440623 -0.07194,2.294234 0.01145,1.163295 -0.0017,2.81869 -0.02885,3.678634 l -0.04963,1.563543 0.156777,0.186271 c 0.08622,0.102459 0.202896,0.186315 0.259298,0.186315 0.05642,0 0.268818,0.07503 0.472062,0.166772 0.203245,0.09174 0.512701,0.19561 0.687685,0.230814 0.174984,0.0352 0.370228,0.07609 0.433858,0.09085 0.247574,0.05742 1.409272,-0.0293 1.795407,-0.134026 0.555087,-0.150541 0.759977,-0.247657 1.165295,-0.552343 0.545856,-0.410323 0.98998,-1.062186 1.264152,-1.855581 0.128058,-0.37057 0.178598,-1.399885 0.08953,-1.82323 C 32.497296,27.741738 31.10165,26.340981 29.217449,25.6177 29.01065,25.538315 28.503073,25.31498 28.089483,25.121388 27.675885,24.927796 27.269405,24.769327 27.18621,24.769269 Z m -24.1437297,1.36e-4 c -0.1215766,-0.0028 -0.245707,0.04235 -0.3545831,0.136005 -0.1558099,0.134023 -0.1592374,0.151321 -0.2014541,1.02678 -0.023586,0.489743 -0.044202,1.632317 -0.045814,2.539045 -0.0017,0.918023 -0.046323,2.276949 -0.1007907,3.066519 -0.053874,0.779858 -0.079835,1.489849 -0.057777,1.57776 0.022058,0.08791 0.091501,0.211216 0.1543167,0.274037 0.1652696,0.165269 0.5195897,0.15384 0.6848763,-0.02209 0.1493196,-0.158947 0.1465623,-0.140831 0.278218,-1.817948 0.094767,-1.207165 0.108664,-1.29078 0.2190587,-1.31631 0.2146469,-0.04964 2.1911889,-0.426524 2.7209595,-0.518848 0.2863373,-0.0499 0.7743748,-0.10668 1.0845692,-0.126147 l 0.5640123,-0.03539 -6.956e-4,0.543805 c -8.485e-4,0.824289 0.1183781,2.782144 0.1789205,2.932933 0.02944,0.07324 0.1444836,0.171203 0.2557691,0.217698 0.1754081,0.07329 0.2284335,0.07364 0.3984627,0.0026 0.2973836,-0.124254 0.3357485,-0.311975 0.2676554,-1.309311 -0.072878,-1.067542 -0.071266,-2.288778 0.00424,-3.064407 0.032409,-0.334058 0.081532,-1.232121 0.109156,-1.995681 0.027658,-0.763561 0.067533,-1.45531 0.088557,-1.53722 0.0291,-0.113124 5.43e-4,-0.19376 -0.1187514,-0.335527 -0.1365002,-0.16222 -0.1878203,-0.184374 -0.3923882,-0.169237 -0.1957953,0.01449 -0.2537584,0.04894 -0.3446398,0.20511 -0.1972715,0.338977 -0.2707859,0.763899 -0.2778616,1.605531 -0.00339,0.445411 -0.023586,1.044105 -0.044117,1.33044 l -0.037245,0.520608 -0.5519903,0.03939 c -0.6101911,0.04355 -1.4714682,0.177912 -3.0150679,0.470388 l -1.0218893,0.193621 -0.041572,-0.610267 c -0.022907,-0.336581 -0.011963,-1.12985 0.024434,-1.768915 0.095861,-1.683335 0.09408,-1.72141 -0.087276,-1.902765 -0.098492,-0.09849 -0.2174721,-0.149367 -0.3390488,-0.152204 z m 8.1413537,0.0093 c -0.09081,0.0015 -0.181432,0.03989 -0.286142,0.103743 -0.350519,0.213721 -0.384159,0.363521 -0.297672,1.324717 0.08494,0.943975 0.104108,4.303244 0.03368,5.898748 l -0.04429,1.002748 0.197577,0.197583 c 0.351792,0.351784 0.72062,0.234346 0.872731,-0.277866 0.07407,-0.249332 0.08839,-0.760014 0.08839,-3.150413 0,-1.569069 0.02104,-2.852871 0.04666,-2.852871 0.02571,0 0.173974,0.175706 0.32958,0.390456 1.61059,2.222735 4.229597,5.239621 4.942352,5.693199 0.537609,0.342118 0.931406,0.14425 1.025681,-0.515415 0.02622,-0.183264 0.0476,-1.59572 0.0476,-3.138748 0,-2.454424 -0.01281,-2.868245 -0.102207,-3.306929 -0.123944,-0.608059 -0.2364,-0.893647 -0.434596,-1.103762 -0.288348,-0.305682 -0.825611,-0.151337 -0.902569,0.259291 -0.02189,0.116633 0.01816,0.410503 0.104532,0.767445 0.199791,0.825743 0.265059,1.651059 0.299648,3.788892 l 0.03046,1.879965 -0.805698,-0.819118 C 14.912921,29.480079 13.80301,28.110507 12.393849,26.063887 11.73059,25.100589 11.456232,24.774023 11.183792,24.778695 Z m 64.439164,0.106119 c -0.392201,0 -0.794796,0.625775 -1.246725,1.937802 -0.297867,0.864762 -1.649617,4.532465 -1.711915,4.644938 -0.05048,0.09112 -0.385508,-0.965152 -0.895349,-2.822809 -0.205196,-0.747652 -0.449605,-1.632661 -0.543099,-1.966719 -0.0935,-0.334057 -0.203745,-0.78921 -0.245029,-1.011418 -0.117512,-0.632517 -0.430125,-0.862922 -0.865425,-0.637821 -0.291954,0.150977 -0.316134,0.486124 -0.09595,1.331055 0.210328,0.807125 0.943929,3.432184 1.228595,4.396255 0.406183,1.375629 0.785624,2.399659 0.957274,2.583456 0.112329,0.120274 0.207919,0.16422 0.357137,0.16422 0.32723,0 0.506091,-0.202446 0.811942,-0.918856 0.285523,-0.668773 1.536668,-4.01311 1.981556,-5.2968 0.143856,-0.415096 0.392515,-0.983917 0.552609,-1.26402 0.246437,-0.4312 0.285396,-0.53944 0.254141,-0.706088 -0.04692,-0.250069 -0.275105,-0.433195 -0.539757,-0.433195 z M 50.83039,24.89538 c -0.216717,0.001 -0.379051,0.01384 -0.429761,0.04098 -0.06991,0.0374 -0.183221,0.177784 -0.251858,0.311935 -0.122077,0.23862 -0.123214,0.264014 -0.0537,1.172953 0.06456,0.84497 0.05964,1.05183 -0.05447,2.284902 -0.11216,1.212287 -0.119829,1.505841 -0.07229,2.773029 0.0554,1.47839 0.07916,1.602362 0.331032,1.730578 0.169333,0.08621 0.496233,0.02891 0.63566,-0.111402 0.11372,-0.114442 0.11837,-0.174075 0.102513,-1.307947 l -0.01663,-1.188051 0.132309,0.03939 c 0.449469,0.133879 1.403867,0.554596 1.83199,0.807585 0.628008,0.371099 1.063809,0.69182 1.658398,1.220403 0.256193,0.227754 0.522338,0.432042 0.591424,0.45397 0.285141,0.0905 0.649176,-0.230211 0.649176,-0.571887 0,-0.33944 -0.923016,-1.1891 -2.018436,-1.858001 L 53.284885,30.3391 53.680047,30.184035 c 1.108104,-0.434749 1.799242,-1.236455 1.799242,-2.087143 0,-0.335036 -0.152628,-0.881142 -0.331871,-1.187478 -0.483864,-0.826969 -1.690603,-1.664675 -2.706698,-1.878953 -0.39361,-0.08301 -1.133556,-0.137412 -1.610327,-0.135082 z m 30.196917,0.09203 c -0.453007,0.0032 -0.886857,0.06547 -1.234135,0.194018 -1.75767,0.650622 -3.131206,3.049397 -2.943318,5.140282 0.12788,1.423008 1.132088,2.567775 2.5868,2.948824 0.531171,0.139133 1.445974,0.15323 1.930805,0.02975 1.678148,-0.42739 2.995673,-2.349588 3.130298,-4.566944 0.08946,-1.473364 -0.311976,-2.593596 -1.135626,-3.169031 -0.535286,-0.373962 -1.469975,-0.583034 -2.334824,-0.576903 z M 45.57395,25.694024 c 0.09653,-10e-4 0.235119,0.0036 0.435793,0.01052 0.743068,0.02548 1.111862,0.155472 1.540919,0.5431 0.334128,0.301867 0.429081,0.507461 0.425755,0.922068 -0.0059,0.749426 -0.514618,1.380846 -1.303017,1.617725 -0.325364,0.09776 -0.877108,0.142028 -1.201386,0.09639 -0.21513,-0.03028 -0.258323,-0.05668 -0.248948,-0.152292 0.0059,-0.06363 0.02732,-0.714409 0.04692,-1.446154 0.0196,-0.731746 0.04819,-1.391782 0.06363,-1.466754 0.01909,-0.09285 0.028,-0.122384 0.240363,-0.124606 z m 5.575017,0.294944 0.386406,0.03235 c 0.608427,0.05095 1.093215,0.17906 1.513762,0.400052 1.056767,0.555315 1.592043,1.471987 1.199587,2.054352 -0.340219,0.504845 -1.01735,0.820549 -1.976847,0.921673 -0.632894,0.0667 -1.173202,0.0729 -1.206315,0.01382 -0.0134,-0.02386 0.01298,-0.381798 0.05862,-0.795393 0.05464,-0.495366 0.07305,-1.071901 0.05387,-1.689425 z m 29.937236,0.06822 c 0.02265,-2.03e-4 0.04547,-1.35e-4 0.06847,1.8e-4 0.2871,0.0038 0.592671,0.04693 0.919121,0.1287 0.930745,0.233111 1.344877,0.907587 1.344877,2.19027 0,1.593298 -0.802389,3.154749 -1.898802,3.695097 -0.349569,0.172274 -0.435733,0.189846 -0.991838,0.202468 -0.90357,0.02051 -1.505701,-0.207782 -2.020286,-0.766035 -0.522856,-0.567237 -0.679489,-1.265605 -0.505989,-2.255721 0.169079,-0.964917 0.607662,-1.807542 1.273789,-2.447186 0.515746,-0.495248 1.107179,-0.741808 1.810687,-0.747769 z m -53.445425,0.100353 c 0.0403,-3.89e-4 1.262794,0.564967 1.771601,0.819295 1.426383,0.712989 2.186115,1.555494 2.362499,2.619944 0.124715,0.752659 -0.155064,1.612198 -0.718805,2.208273 -0.351248,0.371393 -0.590329,0.507968 -1.099272,0.627961 -0.486883,0.114787 -1.498244,0.109781 -1.838421,-0.0091 -0.542403,-0.189574 -0.491685,0.146648 -0.491685,-3.259614 0,-1.653646 0.0059,-3.006689 0.01408,-3.006747 z"
       inkscape:export-xdpi="162"
       inkscape:export-ydpi="162" />
  </g>
</svg>
