<?xml version="1.0" encoding="UTF-8" standalone="no"?>
<svg
   xmlns:dc="http://purl.org/dc/elements/1.1/"
   xmlns:cc="http://creativecommons.org/ns#"
   xmlns:rdf="http://www.w3.org/1999/02/22-rdf-syntax-ns#"
   xmlns:svg="http://www.w3.org/2000/svg"
   xmlns="http://www.w3.org/2000/svg"
   xmlns:sodipodi="http://sodipodi.sourceforge.net/DTD/sodipodi-0.dtd"
   xmlns:inkscape="http://www.inkscape.org/namespaces/inkscape"
   width="210mm"
   height="297mm"
   viewBox="0 0 210 297"
   version="1.1"
   id="svg8"
   inkscape:version="1.0.2-2 (e86c870879, 2021-01-15)"
   sodipodi:docname="hnedypravologohalloween.svg">
  <defs
     id="defs2" />
  <sodipodi:namedview
     id="base"
     pagecolor="#ffffff"
     bordercolor="#666666"
     borderopacity="1.0"
     inkscape:pageopacity="0.0"
     inkscape:pageshadow="2"
     inkscape:zoom="0.24748737"
     inkscape:cx="25.790567"
     inkscape:cy="256.92202"
     inkscape:document-units="mm"
     inkscape:current-layer="layer1"
     inkscape:document-rotation="0"
     showgrid="false"
     inkscape:window-width="1920"
     inkscape:window-height="1009"
     inkscape:window-x="-8"
     inkscape:window-y="-8"
     inkscape:window-maximized="1" />
  <metadata
     id="metadata5">
    <rdf:RDF>
      <cc:Work
         rdf:about="">
        <dc:format>image/svg+xml</dc:format>
        <dc:type
           rdf:resource="http://purl.org/dc/dcmitype/StillImage" />
        <dc:title></dc:title>
      </cc:Work>
    </rdf:RDF>
  </metadata>
  <g
     inkscape:label="Vrstva 1"
     inkscape:groupmode="layer"
     id="layer1">
    <path
       style="fill:#000000;stroke-width:0.253569"
       d="M 97.993584,189.66537 C 77.578181,188.15592 64.687399,183.17576 54.379715,172.81578 40.027772,158.39106 34.608375,136.22791 40.180095,114.7451 c 1.225815,-4.72636 2.193319,-7.3479 4.304774,-11.66419 2.977687,-6.087013 6.210542,-10.564513 10.729491,-14.860316 6.089941,-5.789213 13.746263,-9.803054 22.141038,-11.607485 3.566693,-0.766648 8.523369,-1.293072 12.19993,-1.295698 l 3.225925,-0.0019 0.416259,-1.431883 c 0.32506,-1.118189 0.389377,-2.132002 0.293559,-4.627639 -0.108536,-2.826715 -0.24634,-3.604692 -1.193364,-6.73708 -1.290198,-4.267512 -1.893569,-5.495933 -3.413833,-6.950319 -0.935265,-0.894745 -1.15984,-1.277575 -1.15984,-1.977263 0,-1.863026 2.737108,-2.99882 7.226722,-2.99882 2.258814,0 2.708299,0.07974 4.11652,0.730164 3.456684,1.596579 6.452094,6.26192 8.824014,13.743358 1.48423,4.68149 3.25763,8.939839 4.05517,9.737386 l 0.63886,0.63886 5.25579,0.02674 c 5.60955,0.02856 8.12925,0.290444 11.81811,1.228354 5.35337,1.361117 12.90429,4.797185 18.03389,8.206379 11.0364,7.334922 16.99989,15.829152 20.52769,29.239072 3.10181,11.79065 3.49034,24.63251 1.02543,33.89349 -0.86584,3.25308 -2.65603,7.74455 -4.45063,11.16641 -9.03753,17.23218 -24.89458,27.35682 -47.15042,30.10527 -3.79307,0.46841 -15.31731,0.67821 -19.651596,0.35775 z m 20.539086,-2.3823 c 22.05174,-3.11031 37.14891,-13.34386 45.47978,-30.82827 3.61636,-7.58983 4.83937,-13.16284 4.84872,-22.09464 0.008,-7.10796 -0.68362,-12.68284 -2.39683,-19.33561 -2.60372,-10.11079 -6.39047,-16.9715 -12.62436,-22.872392 -7.72785,-7.315055 -20.02124,-13.374529 -29.47522,-14.528513 -2.65378,-0.32392 -9.00171,-0.376008 -9.00171,-0.07389 0,0.113366 0.35702,0.541269 0.79337,0.950877 1.01198,0.949995 2.24946,2.626109 2.24946,3.046815 0,1.340464 -2.70647,1.537745 -4.94459,0.360415 -1.88179,-0.989873 -2.15534,-0.976082 -2.15534,0.108679 0,0.47816 -0.17931,1.048688 -0.39846,1.267839 -0.78113,0.781139 -3.90037,0.256728 -6.08982,-1.023828 -1.32864,-0.777086 -2.72647,-0.804054 -3.24578,-0.06258 -0.60565,0.864691 -1.72958,1.48191 -2.690816,1.477684 -1.118333,-0.0048 -2.73082,-0.739048 -3.530773,-1.607505 -0.772543,-0.838699 -1.346099,-0.841545 -2.433582,-0.01207 -1.17849,0.898875 -3.049748,1.4315 -4.305185,1.225412 -1.150228,-0.188819 -2.916046,-1.01343 -2.916046,-1.36175 0,-0.292361 1.76301,-1.702661 3.437802,-2.750046 0.705361,-0.441119 1.561158,-1.104714 1.901773,-1.474665 l 0.619299,-0.672642 -3.509996,0.175746 c -4.0447,0.202513 -9.025326,0.88587 -12.009032,1.64768 -10.912867,2.786301 -20.069442,9.347003 -26.569306,19.03694 -1.864569,2.779694 -4.930609,9.029114 -6.08605,12.405064 -2.29803,6.71431 -3.186977,11.7962 -3.360202,19.20956 -0.197952,8.47163 0.580006,14.22376 2.836922,20.976 5.213721,15.59844 16.212927,27.16173 31.103791,32.69892 5.232802,1.94582 13.068004,3.61269 19.749202,4.20147 1.743286,0.15362 3.568983,0.32262 4.05711,0.37554 0.488117,0.0529 4.652989,0.0662 9.255269,0.0296 6.18667,-0.0493 9.16091,-0.1785 11.4106,-0.49582 z M 94.240967,167.59829 c -7.995115,-1.40768 -15.379307,-5.74954 -20.406797,-11.99907 -1.631704,-2.02832 -4.747397,-7.8281 -4.521528,-8.4167 0.116106,-0.30257 1.554622,-0.36094 8.894604,-0.36094 h 8.756081 v 3.54996 3.54997 h 3.803535 3.803536 v -3.54997 -3.54996 h 9.001702 9.0017 v 3.54996 3.54997 h 3.54996 3.54997 v -3.54997 -3.54996 h 8.87492 8.87491 v 0.64348 c 0,0.82467 -1.5683,4.89925 -2.58268,6.71001 -1.57177,2.80578 -4.9841,6.53022 -7.64907,8.34873 -1.73254,1.18223 -6.49409,3.39404 -8.99615,4.17882 -2.8137,0.88254 -6.00524,1.41875 -8.44434,1.41875 h -1.99534 v -3.42318 -3.42318 h -3.89166 -3.891681 l -0.171242,3.20323 c -0.09421,1.76179 -0.232414,3.30221 -0.307177,3.42319 -0.211685,0.34251 -2.256292,0.22453 -5.253253,-0.30314 z m 4.228055,-1.53716 c 0.08712,-0.43582 0.158486,-1.97626 0.158486,-3.42319 v -2.63078 h 5.198152 5.19817 v 3.42319 3.42318 h 1.4934 c 4.44353,0 12.14541,-2.67183 16.3493,-5.67165 1.90232,-1.35747 4.76307,-4.33508 6.08643,-6.33504 0.98058,-1.48192 2.50461,-4.74415 2.83114,-6.0601 l 0.17303,-0.69732 h -7.50778 -7.50777 v 3.54996 3.54997 h -4.81782 -4.81781 v -3.54997 -3.54996 h -7.73385 -7.733854 v 3.55532 3.55533 l -5.007987,-0.0687 -5.007988,-0.0687 -0.07054,-3.48657 -0.07054,-3.48659 h -7.346346 c -4.040493,0 -7.346346,0.0675 -7.346346,0.1499 0,0.0824 0.535979,1.18766 1.191064,2.45603 2.111109,4.08749 5.38894,7.63021 9.821291,10.61497 4.041777,2.72175 7.700397,4.21655 12.315999,5.03192 3.834978,0.67748 3.962193,0.66886 4.15219,-0.28111 z m -5.166463,-28.02449 c 0,-0.39057 9.783551,-17.06709 9.976361,-17.00517 0.17217,0.0553 4.49163,7.3871 9.33051,15.83752 l 0.76229,1.33123 h -10.03458 c -5.519025,0 -10.034581,-0.0736 -10.034581,-0.16358 z m 17.707561,-1.34629 c -0.31136,-0.89163 -7.72555,-13.38177 -7.8613,-13.24337 -0.0934,0.0952 -1.84698,3.08274 -3.896972,6.63904 -2.049983,3.55631 -3.777524,6.55159 -3.838965,6.65619 -0.06143,0.10459 3.441826,0.19017 7.785027,0.19017 4.90364,0 7.8647,-0.0917 7.81221,-0.24203 z m -48.896551,-9.75804 c 0,-0.18984 12.486416,-21.80551 12.780588,-22.12493 0.207276,-0.22506 1.910752,2.52833 6.680834,10.79848 3.521439,6.1053 6.402619,11.17633 6.402619,11.26894 0,0.0926 -5.819412,0.16839 -12.932021,0.16839 -7.112618,0 -12.93202,-0.0499 -12.93202,-0.11088 z m 23.026074,-2.63025 c -6.893784,-12.10859 -9.993722,-17.23985 -10.247729,-16.96281 -0.15425,0.16826 -1.855445,3.04445 -3.780438,6.39156 -1.924985,3.34711 -4.277374,7.42641 -5.227541,9.0651 l -1.72756,2.97943 h 10.911027 10.911017 z m 34.347957,1.4099 c 0.34252,-0.59273 3.2768,-5.67622 6.52063,-11.29668 5.15333,-8.92898 5.93717,-10.16135 6.20925,-9.7624 0.17126,0.25112 2.90921,4.96378 6.08433,10.47256 3.17512,5.50879 5.99732,10.38683 6.27157,10.84008 l 0.49861,0.8241 h -13.10357 -13.10358 z m 23.21865,-0.40346 c -0.45988,-1.16039 -10.73933,-18.51745 -10.87864,-18.36881 -0.26114,0.27861 -10.63247,18.26518 -10.63247,18.43944 0,0.0785 4.85902,0.14265 10.79782,0.14265 5.93879,0 10.75978,-0.096 10.71329,-0.21328 z M 100.59518,81.400767 c 0.90077,-0.865543 1.21701,-1.014282 2.15663,-1.014282 0.66083,0 1.60255,0.249445 2.35531,0.623852 2.76469,1.375147 4.93098,1.814512 4.93098,1.000098 0,-0.222524 -0.24065,-0.742574 -0.5348,-1.155652 -0.29413,-0.413086 -0.45557,-0.830074 -0.35873,-0.926639 0.48144,-0.480134 2.91192,-0.123419 4.50596,0.661324 1.54385,0.760036 3.23394,1.074487 3.23394,0.601704 0,-0.197645 -2.24955,-2.401372 -5.35112,-5.242137 -1.19064,-1.090521 -1.53577,-1.63663 -2.46753,-3.9045 -0.5958,-1.450159 -1.69182,-4.480088 -2.43562,-6.73317 -1.45929,-4.420554 -2.36576,-6.420071 -4.10163,-9.047493 -2.579631,-3.904558 -5.306139,-5.058897 -10.113501,-4.281821 -1.929862,0.31195 -3.423187,0.971473 -3.423187,1.511841 0,0.228705 0.504688,0.911142 1.121515,1.516516 1.320933,1.296399 2.081985,2.891924 3.274793,6.865541 1.236864,4.120421 1.436176,5.259742 1.432774,8.190086 -0.0058,5.133803 -1.539039,8.085385 -5.426355,10.447242 -0.918158,0.557849 -1.669636,1.094681 -1.669971,1.192962 -2.49e-4,0.09827 0.391332,0.252214 0.870364,0.342081 1.049953,0.196974 2.508718,-0.234868 3.634948,-1.07605 1.146212,-0.856122 2.349092,-1.012701 3.329707,-0.433442 0.432149,0.255281 0.78573,0.555328 0.78573,0.666767 0,0.384048 1.649883,1.207548 2.421209,1.208497 0.557648,7.66e-4 1.067118,-0.281647 1.828584,-1.013325 z"
       id="path847"
       inkscape:export-xdpi="162"
       inkscape:export-ydpi="162" />
    <path
       id="path867"
       style="fill:#000000;stroke-width:2.56684"
       d="M -674.70508 120.05859 C -688.33665 120.36265 -708.34877 139.36895 -743.45312 182.42578 C -764.29718 207.99181 -766.45533 215.7029 -755.76172 226.39648 C -742.05915 240.09907 -727.19016 232.08962 -698.35547 195.47656 C -690.57259 185.59421 -678.11564 171.7346 -670.67188 164.67578 C -654.60336 149.43828 -652.16964 142.20387 -659.25391 130.73438 C -663.63169 123.64668 -668.50891 119.92039 -674.70508 120.05859 z M -1455.9082 153.125 C -1474.1467 153.125 -1478.4904 170.48899 -1464.9629 189.31641 C -1456.8379 200.62468 -1422.8758 241.27698 -1412.2324 252.43359 C -1403.6004 261.48187 -1395.7225 259.8702 -1377.6328 245.35742 C -1349.1006 222.46687 -1318.7229 193.62309 -1316.2227 187.04688 C -1313.3115 179.38997 -1318.5803 169.8078 -1328.082 165.47852 C -1335.845 161.94147 -1338.2183 163.4481 -1371.0156 192.74219 C -1384.7638 205.02187 -1397.1676 214.35612 -1398.5781 213.48438 C -1399.9887 212.61262 -1411.7127 198.67466 -1424.6328 182.51172 C -1445.2926 156.66664 -1449.0635 153.125 -1455.9082 153.125 z M -736.89648 271.82227 C -747.06868 271.8216 -757.16949 272.27628 -766.76172 273.25195 C -783.23573 274.92761 -806.18206 278.58371 -817.75195 281.37695 C -836.87727 285.9943 -839.61844 286.10904 -847.93359 282.63477 C -859.2549 277.9044 -868.27393 279.93805 -875.3418 288.81445 C -880.41857 295.19024 -880.61193 297.30512 -878.66797 325.10352 C -876.26101 359.52243 -877.03831 409.06733 -880.49805 441.89453 C -881.83717 454.6004 -883.16872 496.76045 -883.45898 535.58398 C -884.04421 613.84031 -881.90467 629.43898 -867.78711 649.80859 C -859.13328 662.29479 -840.2481 670.63884 -812.75 674.125 C -790.35267 676.96456 -685.38492 675.21961 -670.93945 671.76758 C -657.85624 668.64108 -651.6875 661.04882 -651.6875 648.07227 C -651.6875 625.64115 -660.62237 621.62641 -701.63281 625.63086 C -717.35708 627.16629 -751.21788 628.03587 -776.87891 627.56445 C -835.40073 626.48937 -833.48883 627.72036 -836.54492 589.16797 C -837.70599 574.52098 -837.99783 548.43078 -837.19336 531.19141 L -835.73047 499.84766 L -825.20703 498.5 C -819.41895 497.75933 -780.60801 494.1573 -738.96094 490.49414 C -686.3238 485.86437 -661.44393 482.68258 -657.34961 480.05664 C -642.92361 470.80436 -644.76139 446.39803 -660.44727 438.91797 C -668.30003 435.17325 -674.30036 435.37386 -740.52539 441.58789 C -779.90002 445.28249 -816.44149 448.89784 -821.72852 449.62109 L -831.3418 450.93555 L -829.99023 392.51172 L -828.63672 334.08789 L -816.52734 330.92578 C -770.17681 318.82706 -719.56468 317.64085 -677.83594 327.67383 C -650.05996 334.35214 -647.55534 334.19988 -638.65625 325.30078 C -629.3726 316.01715 -628.29039 300.91006 -636.29297 292.32031 C -647.40428 280.39372 -692.81695 271.82517 -736.89648 271.82227 z M -1391.2812 272.35547 C -1416.6601 272.36648 -1443.0846 274.74056 -1466.0801 279.66992 C -1493.0767 285.45698 -1497.0765 285.76001 -1503.5801 282.51562 C -1512.5182 278.05672 -1524.9876 280.14276 -1531.3438 287.16016 C -1534.9709 291.16485 -1535.8433 295.94018 -1535.3984 309.32617 C -1533.8754 355.15785 -1534.7865 431.1401 -1537.0645 448.3125 C -1540.9815 477.84131 -1542.7023 571.71139 -1539.7969 597.35938 C -1536.6506 625.13353 -1528.7112 647.40578 -1518.5781 656.87891 C -1510.1858 664.72464 -1491.9803 670.82296 -1467.4492 674.00781 C -1444.4991 676.98729 -1387.1289 677.10577 -1352.5293 674.24414 C -1320.2166 671.57167 -1311.8748 667.95699 -1308.4492 655.14844 C -1305.6604 644.72072 -1311.2736 630.00317 -1319.5527 626.03516 C -1325.0385 623.40597 -1332.4286 623.31046 -1355.5723 625.57031 C -1371.5868 627.13405 -1406.2712 628.02985 -1432.6484 627.56055 C -1486.2408 626.60701 -1487.0231 626.35146 -1491.1738 608.45898 C -1492.448 602.9662 -1493.5187 576.34477 -1493.5527 549.30078 L -1493.6133 500.13086 L -1481.4199 498.61133 C -1474.714 497.77549 -1435.7302 494.10691 -1394.7891 490.45898 C -1343.3128 485.87241 -1318.5337 482.66138 -1314.459 480.05078 C -1306.311 474.83046 -1302.7172 465.72812 -1304.6777 455.27734 C -1306.7277 444.35028 -1313.2266 438.21572 -1324.5254 436.54102 C -1329.2887 435.835 -1367.824 438.68994 -1410.1602 442.88477 C -1452.4964 447.07963 -1487.4089 450.23759 -1487.7441 449.90234 C -1488.0794 449.56706 -1487.5166 423.44182 -1486.4922 391.84766 L -1484.6289 334.4043 L -1466.6621 329.86719 C -1420.5015 318.20876 -1378.5106 317.65312 -1333.0332 328.09961 C -1312.2814 332.86647 -1308.1039 333.13825 -1300.9707 330.18359 C -1282.4268 322.50246 -1282.2491 296.19581 -1300.6777 286.83984 C -1319.3308 277.36987 -1354.1892 272.33938 -1391.2812 272.35547 z M -360.45898 279.88672 C -368.42838 279.92054 -376.91315 280.37194 -386.01953 281.20703 C -414.97377 283.86225 -420.16996 285.04066 -425.29492 290.11523 C -433.10207 297.84557 -435.93532 318.1424 -436.0918 367.45703 C -436.159 388.63349 -437.88949 431.37085 -439.9375 462.42969 C -441.98547 493.48852 -443.68851 547.54153 -443.71875 582.54688 L -443.77344 646.19141 L -437.47266 652.49219 C -425.49994 664.4649 -407.63741 658.7424 -402.81836 641.39062 C -401.34181 636.07397 -400.156 605.10105 -400.14844 571.51953 L -400.13477 511.19922 L -367.4082 511.17969 C -339.95491 511.16366 -331.91637 510.2079 -317.50977 505.24609 C -282.44048 493.16778 -254.58215 469.11916 -240.19922 438.50586 C -233.20742 423.62423 -232.01914 417.97063 -231.19727 395.69141 C -229.87087 359.73575 -235.28182 345.71115 -260 321.05273 C -289.43757 291.6863 -317.42426 279.70408 -360.45898 279.88672 z M -1196.1543 284.04102 C -1204.4753 284.0328 -1215.1744 292.19875 -1220.6074 302.70508 C -1224.2106 309.6727 -1224.606 322.2574 -1223.7988 404.50977 C -1223.2923 456.13001 -1223.8687 529.58677 -1225.0801 567.74609 L -1227.2832 637.12695 L -1220.3262 645.39258 C -1216.5005 649.93912 -1211.3231 653.66016 -1208.8203 653.66016 C -1206.3176 653.66016 -1196.8918 656.9895 -1187.873 661.06055 C -1178.8542 665.13155 -1165.1221 669.74058 -1157.3574 671.30273 C -1149.5927 672.86489 -1140.929 674.67911 -1138.1055 675.33398 C -1127.1196 677.88192 -1075.5702 674.03369 -1058.4355 669.38672 C -1033.804 662.70659 -1024.7124 658.39712 -1006.7266 644.87695 C -982.50485 626.66919 -962.79705 597.74337 -950.63086 562.53711 C -944.94842 546.09341 -942.70591 500.41843 -946.6582 481.63281 C -960.47903 415.94179 -1022.4099 353.7844 -1106.0195 321.68945 C -1115.196 318.16692 -1137.7193 308.25648 -1156.0723 299.66602 C -1174.4252 291.07553 -1192.4623 284.04358 -1196.1543 284.04102 z M -2267.5117 284.04688 C -2272.9066 283.921 -2278.4148 285.92632 -2283.2461 290.08203 C -2290.1601 296.02918 -2290.3121 296.79678 -2292.1855 335.64453 C -2293.2335 357.37644 -2294.1465 408.0772 -2294.2168 448.3125 C -2294.2878 489.04897 -2296.2707 549.35016 -2298.6895 584.38672 C -2301.0783 618.99222 -2302.231 650.49747 -2301.252 654.39844 C -2300.2729 658.29944 -2297.1919 663.771 -2294.4043 666.55859 C -2287.0705 673.89231 -2271.348 673.38515 -2264.0137 665.57812 C -2257.3876 658.52497 -2257.5101 659.32884 -2251.668 584.9082 C -2247.4628 531.34126 -2246.8461 527.63092 -2241.9473 526.49805 C -2232.4226 524.29541 -2144.7153 507.57139 -2121.207 503.47461 C -2108.5012 501.2603 -2086.8448 498.7408 -2073.0801 497.87695 L -2048.0527 496.30664 L -2048.084 520.4375 C -2048.1313 557.01463 -2042.8308 643.89278 -2040.1445 650.58398 C -2038.8398 653.83381 -2033.733 658.18093 -2028.7949 660.24414 C -2021.0114 663.4962 -2018.6582 663.51183 -2011.1133 660.35938 C -1997.9171 654.84569 -1996.215 646.51573 -1999.2363 602.25977 C -2002.4703 554.88853 -2002.3998 500.69719 -1999.0605 466.2793 C -1997.6224 451.45576 -1995.4431 411.60498 -1994.2168 377.72266 C -1992.9905 343.84029 -1991.2218 313.14447 -1990.2871 309.50977 C -1988.9963 304.48999 -1990.2633 300.91189 -1995.5566 294.62109 C -2001.6137 287.42271 -2003.8911 286.43966 -2012.9688 287.11133 C -2021.657 287.7542 -2024.2288 289.28321 -2028.2617 296.21289 C -2037.0156 311.25473 -2040.2777 330.11029 -2040.5918 367.45703 C -2040.758 387.22172 -2041.6395 413.78828 -2042.5488 426.49414 L -2044.2012 449.5957 L -2068.6953 451.34375 C -2095.7719 453.27626 -2133.9907 459.23847 -2202.4863 472.2168 L -2247.832 480.80859 L -2249.6777 453.72852 C -2250.6958 438.79303 -2250.2085 403.59234 -2248.5938 375.23438 C -2244.3401 300.53781 -2244.4193 298.8483 -2252.4668 290.80078 C -2256.8372 286.43038 -2262.1169 284.17274 -2267.5117 284.04688 z M -1906.2461 284.45898 C -1910.2759 284.52808 -1914.2968 286.22933 -1918.9434 289.0625 C -1934.4972 298.54622 -1935.9902 305.19346 -1932.1523 347.8457 C -1928.3832 389.73382 -1927.5325 538.79853 -1930.6582 609.59766 L -1932.623 654.09375 L -1923.8555 662.86133 C -1908.2453 678.47146 -1891.8787 673.26023 -1885.1289 650.53125 C -1881.8433 639.4674 -1881.207 616.80631 -1881.207 510.73438 C -1881.207 441.10826 -1880.2742 384.14062 -1879.1348 384.14062 C -1877.9953 384.14062 -1871.4147 391.9374 -1864.5098 401.4668 C -1793.0412 500.09878 -1676.825 633.97054 -1645.1973 654.09766 C -1621.3414 669.27888 -1603.867 660.49866 -1599.6836 631.22656 C -1598.5214 623.09438 -1597.5703 560.41786 -1597.5703 491.94727 C -1597.5703 383.03428 -1598.1375 364.67131 -1602.1055 345.20508 C -1607.6055 318.22294 -1612.5956 305.55026 -1621.3906 296.22656 C -1634.1859 282.6622 -1658.0261 289.51111 -1661.4414 307.73242 C -1662.4115 312.90788 -1660.635 325.94813 -1656.8027 341.78711 C -1647.9371 378.42875 -1645.0408 415.05146 -1643.5059 509.91602 L -1642.1562 593.33789 L -1677.9082 556.99023 C -1740.7692 493.07892 -1790.0205 432.30533 -1852.5508 341.48828 C -1881.9824 298.74277 -1894.1567 284.25169 -1906.2461 284.45898 z M 953.1875 289.16797 C 935.7838 289.16797 917.91922 316.93617 897.86523 375.15625 C 884.64755 413.52937 824.66489 576.28054 821.90039 581.27148 C 819.66079 585.31494 804.79383 538.44367 782.16992 456.01172 C 773.06455 422.83525 762.2191 383.56376 758.07031 368.74023 C 753.92153 353.9167 749.02924 333.71968 747.19727 323.85938 C 741.98299 295.79197 728.11095 285.56797 708.79492 295.55664 C 695.83953 302.25608 694.76692 317.12796 704.53711 354.62109 C 713.87016 390.43657 746.42298 506.92134 759.05469 549.70117 C 777.07907 610.74353 793.91632 656.184 801.5332 664.33984 C 806.51749 669.67688 810.75916 671.62695 817.38086 671.62695 C 831.90124 671.62695 839.83795 662.64361 853.41016 630.85352 C 866.07985 601.17727 921.59824 452.77512 941.33984 395.8125 C 947.72331 377.39294 958.75755 352.15197 965.86133 339.72266 C 976.79694 320.58852 978.5258 315.78547 977.13867 308.39062 C 975.05672 297.29399 964.9311 289.16797 953.1875 289.16797 z M -146.96289 289.63672 C -156.57938 289.68371 -163.78295 290.25079 -166.0332 291.45508 C -169.13416 293.11467 -174.16352 299.34408 -177.20898 305.29688 C -182.62613 315.88546 -182.67679 317.01234 -179.59375 357.3457 C -176.72771 394.84057 -176.94723 404.01981 -182.00977 458.73633 C -186.98695 512.53053 -187.32736 525.55673 -185.21875 581.78711 C -182.75869 647.38943 -181.7049 652.8906 -170.5293 658.58008 C -163.01524 662.40545 -148.50931 659.86326 -142.32227 653.63672 C -137.27621 648.55843 -137.07007 645.91228 -137.77344 595.59766 L -138.50977 542.87891 L -132.63867 544.62695 C -112.694 550.56773 -70.343563 569.23671 -51.345703 580.46289 C -23.478596 596.93007 -4.1402012 611.16178 22.244141 634.61719 C 33.612567 644.72361 45.42262 653.78868 48.488281 654.76172 C 61.141028 658.77754 77.294922 644.5463 77.294922 629.38477 C 77.294922 614.3224 36.336907 576.61945 -12.271484 546.9375 L -38.046875 531.19727 L -20.511719 524.31641 C 28.659507 505.02475 59.328125 469.44973 59.328125 431.70117 C 59.328125 416.83425 52.555185 392.60122 44.601562 379.00781 C 23.130368 342.31178 -30.417616 305.13927 -75.505859 295.63086 C -92.972229 291.94746 -125.80661 289.53334 -146.96289 289.63672 z M 1193 293.7207 C 1172.8979 293.86321 1153.6462 296.62595 1138.2363 302.33008 C 1060.2412 331.2009 999.29154 437.6445 1007.6289 530.42578 C 1013.3035 593.57057 1057.8643 644.36861 1122.416 661.27734 C 1145.9861 667.45128 1186.5797 668.0768 1208.0938 662.59766 C 1282.5604 643.63255 1341.0242 558.33667 1346.998 459.94336 C 1350.9677 394.56411 1333.1545 344.85473 1296.6055 319.32031 C 1272.8528 302.72606 1231.3767 293.44865 1193 293.7207 z M -380.21289 325.07617 C -375.92936 325.03136 -369.77968 325.23761 -360.875 325.54297 C -327.90193 326.67369 -311.5371 332.44191 -292.49805 349.64258 C -277.67123 363.03768 -273.45788 372.16073 -273.60547 390.55859 C -273.87201 423.81371 -296.44108 451.83247 -331.42578 462.34375 C -345.8635 466.68166 -370.34661 468.64616 -384.73633 466.62109 C -394.28251 465.27766 -396.19895 464.10599 -395.7832 459.86328 C -395.50647 457.03975 -394.57143 428.16197 -393.70312 395.69141 C -392.83483 363.22081 -391.56323 333.93227 -390.87891 330.60547 C -390.03138 326.48523 -389.63666 325.17477 -380.21289 325.07617 z M -132.82617 338.16406 L -115.67969 339.59961 C -88.68133 341.86018 -67.169287 347.54524 -48.507812 357.35156 C -1.6146904 381.99321 22.137572 422.66977 4.7226562 448.51172 C -10.374062 470.91381 -40.421306 484.92287 -82.998047 489.41016 C -111.08223 492.37006 -135.05811 492.64511 -136.52734 490.02344 C -137.12075 488.96464 -135.95069 473.08145 -133.92578 454.72852 C -131.50048 432.74709 -130.68466 407.16382 -131.53516 379.76172 L -132.82617 338.16406 z M 1195.6133 341.19141 C 1196.6203 341.18287 1197.633 341.18554 1198.6504 341.19922 C 1211.3903 341.37046 1224.9495 343.28205 1239.4355 346.91016 C 1280.7364 357.25427 1299.1133 387.18358 1299.1133 444.10156 C 1299.1133 514.8028 1263.5082 584.09085 1214.8555 608.06836 C 1199.3438 615.71287 1195.5203 616.49261 1170.8438 617.05273 C 1130.7486 617.96284 1104.0294 607.83255 1081.1953 583.06055 C 1057.9939 557.88991 1051.0435 526.90038 1058.7422 482.96484 C 1066.2451 440.14745 1085.7068 402.75669 1115.2656 374.37305 C 1138.1516 352.39682 1164.3957 341.45589 1195.6133 341.19141 z M -1175.9824 345.64453 C -1174.1941 345.62722 -1119.9467 370.71445 -1097.3691 382 C -1034.0743 413.63831 -1000.3621 451.02377 -992.53516 498.25781 C -987.00083 531.65644 -999.41608 569.79774 -1024.4316 596.24805 C -1040.018 612.72834 -1050.6268 618.78872 -1073.2109 624.11328 C -1094.8157 629.20691 -1139.694 628.98475 -1154.7891 623.70898 C -1178.8578 615.29681 -1176.6074 630.21636 -1176.6074 479.06641 C -1176.6074 405.68726 -1176.3264 345.6471 -1175.9824 345.64453 z "
       transform="scale(0.26458333)"
       inkscape:export-xdpi="162"
       inkscape:export-ydpi="162" />
  </g>
</svg>
