<?xml version="1.0" encoding="UTF-8" standalone="no"?>
<svg
   xmlns:dc="http://purl.org/dc/elements/1.1/"
   xmlns:cc="http://creativecommons.org/ns#"
   xmlns:rdf="http://www.w3.org/1999/02/22-rdf-syntax-ns#"
   xmlns:svg="http://www.w3.org/2000/svg"
   xmlns="http://www.w3.org/2000/svg"
   xmlns:sodipodi="http://sodipodi.sourceforge.net/DTD/sodipodi-0.dtd"
   xmlns:inkscape="http://www.inkscape.org/namespaces/inkscape"
   version="1.1"
   id="svg10"
   width="3650.0535"
   height="731.55078"
   viewBox="0 0 3650.0535 731.55078"
   sodipodi:docname="hnedepravologovanoce.svg"
   inkscape:export-filename="C:\Users\tomas\OneDrive\Dokumenty\bordel\hnědé právo\loga\hnedepravologovanoce.png"
   inkscape:export-xdpi="78"
   inkscape:export-ydpi="78"
   inkscape:version="1.0.2-2 (e86c870879, 2021-01-15)">
  <metadata
     id="metadata16">
    <rdf:RDF>
      <cc:Work
         rdf:about="">
        <dc:format>image/svg+xml</dc:format>
        <dc:type
           rdf:resource="http://purl.org/dc/dcmitype/StillImage" />
        <dc:title></dc:title>
      </cc:Work>
    </rdf:RDF>
  </metadata>
  <defs
     id="defs14" />
  <sodipodi:namedview
     pagecolor="#ffffff"
     bordercolor="#000000"
     borderopacity="0.25"
     objecttolerance="10"
     gridtolerance="10"
     guidetolerance="10"
     inkscape:pageopacity="0"
     inkscape:pageshadow="2"
     inkscape:window-width="1920"
     inkscape:window-height="1009"
     id="namedview12"
     showgrid="false"
     inkscape:zoom="0.23574997"
     inkscape:cx="1154.8252"
     inkscape:cy="365.77539"
     inkscape:window-x="-8"
     inkscape:window-y="-8"
     inkscape:window-maximized="1"
     inkscape:current-layer="g18" />
  <g
     inkscape:groupmode="layer"
     inkscape:label="Image"
     id="g18">
    <path
       id="path36"
       style="fill:#769a6e;stroke-width:1.87567"
       d="m 2691.9521,117.44629 c -1.4436,0 -5.8789,5.60597 -9.8532,12.45772 -3.9742,6.85177 -8.1428,13.37299 -9.2664,14.49116 -1.1239,1.11819 -8.2728,2.59662 -15.884,3.28476 -7.6113,0.68816 -15.4484,2.32854 -17.417,3.64625 -3.3165,2.21988 -2.6492,3.24563 9.1081,13.97325 l 12.6912,11.57833 -2.5407,15.37055 c -3.0573,18.50052 -1.7797,20.85687 8.8377,16.29865 3.8533,-1.6542 7.3439,-3.00668 7.7568,-3.00668 0.413,0 0.3152,4.6049 -0.2162,10.23313 -1.903,20.16466 -11.4764,31.93281 -34.4554,42.35075 -14.3829,6.52084 -17.6098,9.88 -17.6098,18.32858 0,7.64877 8.675,13.42725 25.8493,17.21629 13.4185,2.96039 13.9899,3.28325 9.5326,5.38072 -2.608,1.22725 -12.9475,4.80967 -22.9766,7.95989 -10.0289,3.15024 -19.3478,6.93374 -20.7104,8.41176 -3.6975,4.01084 -3.0627,15.61053 1.0811,19.73285 3.6753,3.65617 23.7296,9.16722 47.3009,12.99651 7.3639,1.19633 12.7013,2.74541 11.8609,3.44464 -2.9443,2.44975 -32.0985,10.37906 -52.301,14.22352 -11.216,2.13438 -21.9001,5.06876 -23.7412,6.52084 -5.0567,3.98828 -6.2622,11.88616 -2.745,18.00879 3.6951,6.43332 9.1334,8.21232 41.3975,13.55266 l 23.9999,3.97298 -25.6987,5.50935 c -14.1344,3.03018 -34.0126,6.87333 -44.1736,8.54037 -19.353,3.17507 -24.7847,6.06285 -26.4865,14.07752 -1.4843,6.99062 3.3486,14.53961 10.6756,16.67752 3.6357,1.06082 18.8978,3.06954 33.9189,4.46309 15.021,1.39351 27.6968,2.87978 28.166,3.30213 0.4693,0.42233 -18.4945,3.39308 -42.1388,6.60427 -38.7143,5.2578 -43.4306,6.2734 -47.4361,10.19142 -7.4539,7.2911 -4.6396,20.04745 5.1968,23.55292 6.0631,2.16069 54.1203,7.28893 68.3395,7.2925 5.8386,9.8e-4 9.0277,0.64168 7.9072,1.59199 -1.585,1.34419 -75.4313,7.38972 -89.5052,7.32725 -6.6083,-0.0294 -16.1544,9.1901 -16.1544,15.59998 0,9.46653 6.7471,13.54494 29.714,17.95318 24.4051,4.68427 69.1729,10.87992 79.0113,10.93529 3.8053,0.0212 8.0814,0.7024 9.5058,1.51549 3.3263,1.89919 -22.0642,3.54245 -77.4784,5.01576 -40.9454,1.08864 -43.5338,1.36266 -48.386,5.12005 -6.8554,5.30874 -7.2923,17.3872 -0.799,22.12083 6.3714,4.64473 74.2685,15.82655 115.1808,18.96816 14.075,1.08079 15.6797,1.50009 9.8841,2.57565 -7.1223,1.32178 -58.9096,4.20809 -112.3817,6.26363 -27.0297,1.03907 -30.8577,1.57571 -35.0886,4.93236 -7.1266,5.65419 -8.135,13.66779 -2.4595,19.5799 3.556,3.70437 8.9906,5.82958 23.413,9.16257 49.1996,11.36984 117.5992,21.03004 168.5167,23.79968 38.7544,2.10806 64.0366,2.14348 99.3431,0.13898 43.1157,-2.44776 80.0929,-6.69854 85.3778,-9.81602 6.4352,-3.79604 8.0902,-14.13727 3.2047,-20.0283 -5.4199,-6.53535 -10.6177,-7.23867 -34.2199,-4.63343 -41.0976,4.53638 -101.5463,6.41095 -141.3776,4.38664 -20.6387,-1.04889 -39.2326,-1.90652 -41.3165,-1.90829 -10.1264,-0.0106 0.6942,-1.88975 25.606,-4.44572 84.1562,-8.63444 166.327,-23.45791 173.3971,-31.2799 5.1056,-5.64889 4.4487,-15.16114 -1.4095,-20.435 l -4.8647,-4.37967 -62.9536,1.18181 c -45.2734,0.85071 -64.0335,0.62196 -66.7949,-0.82031 -3.5215,-1.83933 -3.3839,-2.01157 1.641,-2.06124 8.0708,-0.0797 70.6521,-11.66826 92.3741,-17.10504 21.493,-5.37949 27.6755,-9.74166 27.6755,-19.53126 0,-6.1264 -5.3341,-13.03766 -10.3784,-13.44837 -1.359,-0.1107 -29.6029,-0.10197 -62.7641,0.0208 -33.1613,0.12279 -63.4021,-0.42106 -67.2007,-1.20614 -6.3664,-1.31588 -5.6364,-1.59882 9.3206,-3.66016 37.4618,-5.16284 103.832,-22.36945 110.0149,-28.52 1.7428,-1.73368 3.7136,-5.6001 4.3784,-8.59251 0.9706,-4.36942 0.098,-6.55655 -4.4247,-11.10213 l -5.6332,-5.6588 -52.243,1.85612 c -28.7329,1.02086 -52.6321,1.50237 -53.1115,1.07062 -0.4796,-0.43177 1.6768,-1.27559 4.795,-1.87702 3.1183,-0.60142 15.9021,-3.77946 28.4056,-7.06309 45.2014,-11.87076 55.3509,-16.90301 55.3509,-27.43204 0,-6.33746 -7.2771,-14.59408 -12.8493,-14.57806 -2.1745,0.005 -23.5242,0.47943 -47.4438,1.04972 l -43.4901,1.03585 16.3513,-5.32863 c 20.0239,-6.52168 50.6137,-18.52397 59.154,-23.21223 11.2146,-6.15606 10.5514,-21.02805 -1.1892,-26.68475 -2.5082,-1.20852 -8.6166,-1.24487 -18.2856,-0.11461 -7.9856,0.9334 -22.9681,1.69296 -33.2972,1.68583 l -18.7797,-0.0142 23.5134,-10.88661 c 26.5975,-12.3161 40.7334,-22.94699 40.7334,-30.63337 0,-3.07497 -2.2292,-6.90112 -6.0039,-10.29919 -5.8624,-5.2778 -6.3392,-5.37775 -20.2624,-4.3449 -7.8422,0.58173 -21.3513,0.47153 -30.0193,-0.24332 l -15.7603,-1.30001 19.7139,-10.56334 c 23.8582,-12.78598 30.5869,-18.41507 30.5869,-25.58634 0,-11.71963 -10.3433,-15.88357 -40.2664,-16.21868 l -11.6022,-0.13207 5.3011,-6.2532 c 8.5966,-10.14665 14.7254,-24.13883 16.9885,-38.78789 1.1656,-7.54288 1.5703,-14.51047 0.9035,-15.48181 -1.6879,-2.45845 -0.201,-2.22503 7.8724,1.24092 10.2562,4.40304 11.3977,2.17474 7.946,-15.49918 l -2.9344,-15.0195 11.8493,-10.76148 c 6.5167,-5.91931 11.8496,-12.10507 11.8496,-13.74729 0,-3.09401 -2.4563,-3.74688 -23.722,-6.29492 l -10.8726,-1.30348 -8.2469,-14.23741 c -4.5365,-7.83058 -9.4292,-14.23742 -10.8727,-14.23742 z" />
    <path
       id="path43"
       style="fill:#000000;stroke-width:2.5294"
       d="m 1630.348,108.99759 c -13.4327,0.29962 -33.1529,19.0287 -67.7453,61.45754 -20.5401,25.19314 -22.6667,32.79175 -12.1291,43.32937 13.5028,13.50274 28.1549,5.61202 56.569,-30.46702 7.6693,-9.73822 19.9445,-23.39759 27.2798,-30.35346 15.8341,-15.01525 18.2324,-22.14414 11.2514,-33.44636 -4.3139,-6.98431 -9.12,-10.65627 -15.2258,-10.52007 z m -769.80897,32.58412 c -17.97252,0 -22.25479,17.11072 -8.92454,35.66354 8.00653,11.14334 41.47518,51.20271 51.9633,62.1966 8.50606,8.91631 16.26724,7.33006 34.09304,-6.97104 28.11604,-22.55669 58.05257,-50.98168 60.51639,-57.46199 2.86868,-7.54522 -2.32326,-16.98763 -11.68641,-21.25378 -7.64973,-3.48545 -9.99033,-2.00079 -42.30932,26.86602 -13.54768,12.10058 -25.7686,21.2987 -27.15856,20.43966 -1.38995,-0.85903 -12.94491,-14.59372 -25.6766,-30.52092 -20.35845,-25.46812 -24.07242,-28.95809 -30.8173,-28.95809 z m 708.52467,116.96602 c -10.0239,-6.6e-4 -19.9773,0.4474 -29.4296,1.40883 -16.2339,1.65122 -38.8454,5.254 -50.2465,8.0065 -18.8464,4.55 -21.5476,4.66306 -29.7415,1.23947 -11.1562,-4.66138 -20.0438,-2.65739 -27.0085,6.08955 -5.0027,6.2828 -5.1952,8.36683 -3.2795,35.75978 2.3719,33.91691 1.6078,82.73917 -1.8015,115.08758 -1.3195,12.52056 -2.6336,54.06568 -2.9196,92.32295 -0.5767,77.11495 1.5335,92.4861 15.4452,112.5586 8.5275,12.3041 27.1373,20.52644 54.2343,23.96174 22.0706,2.79811 125.5074,1.07863 139.7423,-2.32304 12.8923,-3.08091 18.9692,-10.56242 18.9692,-23.3497 0,-22.10496 -8.8027,-26.06013 -49.215,-22.1141 -15.4949,1.51303 -48.8618,2.36996 -74.1486,1.9054 -57.6682,-1.05942 -55.7842,0.15363 -58.7957,-37.83646 -1.1442,-14.43336 -1.4317,-40.14301 -0.639,-57.13096 l 1.4416,-30.88659 10.3699,-1.32606 c 5.7037,-0.72986 43.9485,-4.2813 84.9882,-7.89102 51.8693,-4.56226 76.3863,-7.69761 80.4209,-10.28527 14.2156,-9.1173 12.4047,-33.16767 -3.0524,-40.53866 -7.7381,-3.69007 -13.651,-3.49242 -78.9102,2.63099 -38.8003,3.64073 -74.8088,7.20334 -80.0187,7.91604 l -9.4731,1.29527 1.3319,-57.57169 1.3318,-57.57168 11.9347,-3.11599 c 45.6746,-11.92226 95.5485,-13.09117 136.6685,-3.20454 27.3709,6.58089 29.839,6.43088 38.6083,-2.33842 9.1482,-9.14823 10.2146,-24.03499 2.3288,-32.49945 -10.9493,-11.75263 -55.6997,-20.1962 -99.1362,-20.19907 z m -644.84032,0.52542 c -25.00869,0.0108 -51.04777,2.35031 -73.70787,7.20778 -26.60283,5.70265 -30.54433,6.00126 -36.95305,2.8042 -8.80771,-4.3939 -21.09531,-2.33827 -27.35872,4.57678 -3.57441,3.94628 -4.43585,8.65197 -3.99748,21.84272 1.50088,45.16321 0.60494,120.03724 -1.63978,136.95916 -3.85991,29.09813 -5.55564,121.60101 -2.69258,146.8749 3.1004,27.36906 10.92398,49.31456 20.90927,58.64948 8.26995,7.73132 26.20797,13.7407 50.38125,16.87909 22.61539,2.93619 79.15078,3.05274 113.24569,0.23288 31.84145,-2.63349 40.06159,-6.19546 43.43719,-18.8172 2.7481,-10.27561 -2.7832,-24.77848 -10.9416,-28.68864 -5.40569,-2.59085 -12.68808,-2.68495 -35.49417,-0.45806 -15.78099,1.54092 -49.95944,2.42367 -75.95199,1.96119 -52.8107,-0.93962 -53.5816,-1.19142 -57.67178,-18.82295 -1.25563,-5.41266 -2.31109,-31.64582 -2.3442,-58.29535 l -0.0597,-48.45277 12.01359,-1.49737 c 6.60808,-0.82365 45.02328,-4.43871 85.36732,-8.03344 50.72547,-4.51969 75.14511,-7.68387 79.16036,-10.25639 8.02917,-5.1442 11.57067,-14.11376 9.63867,-24.41211 -2.0201,-10.76768 -8.4242,-16.81277 -19.55825,-18.46305 -4.69388,-0.69572 -42.66703,2.11757 -84.38575,6.25122 -41.71871,4.13367 -76.12393,7.24561 -76.45433,6.91523 -0.33041,-0.3304 0.22613,-26.07272 1.23562,-57.20601 l 1.83611,-56.60746 17.70474,-4.47093 c 45.48733,-11.48839 86.86392,-12.03596 131.67796,-1.74179 20.4492,4.69732 24.5677,4.96515 31.5968,2.05358 18.2733,-7.5691 18.4485,-33.49206 0.2887,-42.71157 -18.38111,-9.33185 -52.7309,-14.28897 -89.28206,-14.27312 z m 1015.78732,7.42141 c -7.8532,0.0334 -16.2141,0.47814 -25.1877,1.30106 -28.5319,2.61649 -33.6523,3.77771 -38.7026,8.77827 -7.6932,7.61759 -10.4851,27.61838 -10.6394,76.21374 -0.066,20.8676 -1.7733,62.98162 -3.7915,93.58744 -2.0181,30.60582 -3.6936,83.87046 -3.7241,118.36523 l -0.054,62.71818 6.2069,6.20696 v 0 c 11.7981,11.79809 29.4,6.15906 34.1488,-10.93964 1.4551,-5.23908 2.6192,-35.76031 2.629,-68.852 l 0.016,-59.44052 32.2491,-0.0173 c 27.0529,-0.0158 34.9743,-0.95953 49.1708,-5.84899 34.5578,-11.9021 62.0096,-35.6 76.1829,-65.7668 6.8898,-14.66458 8.0608,-20.23571 8.8707,-42.18999 1.307,-35.43121 -4.0269,-49.24934 -28.3846,-73.54812 -29.0083,-28.93812 -56.5848,-40.74748 -98.9919,-40.56751 z m -823.5083,4.0937 c -8.1995,-0.008 -18.7427,8.03875 -24.0965,18.39184 -3.5506,6.866 -3.9382,19.26712 -3.1429,100.31983 0.4992,50.86732 -0.068,123.25271 -1.2626,160.85547 l -2.171,68.36892 6.8557,8.14506 c 3.7696,4.48023 8.8717,8.147 11.3379,8.147 2.4662,0 11.7546,3.28082 20.6418,7.29245 8.8873,4.01164 22.4191,8.55344 30.0705,10.0928 7.6515,1.53937 16.1888,3.32714 18.9712,3.97246 10.8256,2.51075 61.6231,-1.28135 78.5079,-5.86053 24.2724,-6.58268 33.2314,-10.82736 50.9548,-24.15035 23.8685,-17.9422 43.2888,-46.44809 55.2776,-81.14081 5.5995,-16.20388 7.8094,-61.21265 3.9146,-79.72428 -13.6192,-64.73291 -74.6467,-125.9837 -157.0369,-157.61053 -9.0426,-3.47117 -31.2395,-13.23705 -49.3247,-21.70222 -18.0853,-8.4652 -35.8592,-15.39415 -39.4974,-15.39711 z m -1055.729353,0.006 c -5.316148,-0.12403 -10.745974,1.85203 -15.506808,5.94714 -6.813147,5.86041 -6.961076,6.6168 -8.807143,44.89794 -1.032713,21.41492 -1.934473,71.37623 -2.003548,111.02467 -0.06994,40.14231 -2.022042,99.56399 -4.405497,134.08953 -2.354132,34.10077 -3.48993,65.14647 -2.525125,68.99056 0.964806,3.84408 4.00082,9.23584 6.747781,11.9828 7.226785,7.22677 22.719997,6.727 29.947367,-0.96617 6.52943,-6.95027 6.408669,-6.15815 12.165636,-79.49332 4.143791,-52.78567 4.751558,-56.43995 9.578923,-57.55629 9.385763,-2.17051 95.813837,-18.65254 118.979187,-22.68956 12.52056,-2.18198 33.86299,-4.66475 47.42694,-5.51602 l 24.66038,-1.54739 -0.0308,23.7789 c -0.0467,36.04365 5.17461,121.65464 7.82173,128.24824 1.2857,3.20243 6.31999,7.48613 11.18599,9.51926 7.67002,3.20473 9.98892,3.22004 17.42375,0.11355 13.00373,-5.43329 14.68094,-13.64171 11.70372,-57.25221 -3.1867,-46.68031 -3.11727,-100.08123 0.17323,-133.99713 1.41719,-14.60733 3.56472,-53.87496 4.77309,-87.26308 1.20841,-33.38819 2.95134,-63.63631 3.87237,-67.218 1.27201,-4.94656 0.0234,-8.47439 -5.19267,-14.67344 -5.96871,-7.09339 -8.21485,-8.0621 -17.16007,-7.40023 -8.56162,0.63348 -11.09392,2.14213 -15.068,8.97074 -8.62624,14.82246 -11.84261,33.40107 -12.15216,70.2031 -0.1638,19.47644 -1.0305,45.65548 -1.92656,58.17604 l -1.62824,22.7646 -24.13881,1.72257 c -26.68166,1.9043 -64.34303,7.77955 -131.83963,20.56859 l -44.682411,8.46631 -1.818782,-26.68319 c -1.003156,-14.71763 -0.525074,-49.40683 1.066249,-77.35119 4.191639,-73.6071 4.115502,-75.27195 -3.814633,-83.2021 -4.306663,-4.30665 -9.509339,-6.53137 -14.825486,-6.6554 z m 355.994513,0.40609 c -3.97104,0.0681 -7.93138,1.74646 -12.51015,4.53831 -15.32699,9.3454 -16.79825,15.89373 -13.01632,57.92389 3.71417,41.27717 4.55248,188.16964 1.47234,257.93615 l -1.93618,43.84516 8.63969,8.6397 c 15.38245,15.38247 31.51038,10.24726 38.16173,-12.15023 3.23767,-10.90245 3.86467,-33.23303 3.86467,-137.75789 0,-68.61061 0.91919,-124.74733 2.04205,-124.74733 1.12285,0 7.6074,7.68303 14.41168,17.07345 70.42619,97.19338 184.94727,229.11263 216.11375,248.94616 23.50792,14.9598 40.72739,6.30764 44.84984,-22.53751 1.14528,-8.0136 2.08246,-69.77403 2.08246,-137.24595 0,-107.32444 -0.56086,-125.42153 -4.47094,-144.60382 -5.41979,-26.58862 -10.33517,-39.07643 -19.00195,-48.26413 -12.60864,-13.36653 -36.103,-6.61751 -39.46856,11.33804 -0.9559,5.09996 0.79461,17.95003 4.57102,33.55799 8.73629,36.10722 11.59035,72.19575 13.10294,165.67668 l 1.32992,82.20514 -35.22857,-35.81752 C 579.83287,476.57726 531.29989,416.69012 469.68163,327.19765 440.67931,285.07559 428.68065,270.79586 416.76756,271.00014 Z m 2817.72964,4.6403 c -17.15,0 -34.7558,27.36319 -54.5173,84.73413 -13.0249,37.81342 -72.1327,198.1908 -74.8568,203.10895 -2.207,3.98449 -16.8553,-42.20315 -39.1492,-123.43281 -8.9726,-32.69257 -19.6598,-71.39127 -23.7481,-85.99858 -4.0883,-14.60733 -8.9091,-34.50977 -10.7144,-44.22626 -5.1382,-27.65801 -18.8099,-37.7329 -37.8441,-27.88993 -12.7665,6.60173 -13.8216,21.25861 -4.1939,58.2049 9.197,35.29311 41.275,150.07889 53.7225,192.23476 17.7614,60.15203 34.3532,104.92972 41.8589,112.96663 4.9116,5.25917 9.0895,7.1789 15.6146,7.1789 14.3086,0 22.1315,-8.8504 35.5058,-40.17683 12.4849,-29.2434 67.1915,-175.48296 86.6452,-231.61476 6.2904,-18.15089 17.1657,-43.02181 24.1657,-55.26983 10.7764,-18.85507 12.4798,-23.58998 11.1129,-30.87697 -2.0516,-10.93481 -12.0296,-18.9423 -23.6018,-18.9423 z m -1084.1043,0.46191 c -9.4763,0.0464 -16.5747,0.60513 -18.7922,1.79184 -3.0558,1.63539 -8.0118,7.77394 -11.0128,13.63992 -5.3382,10.43415 -5.3899,11.54654 -2.3519,51.2916 2.8242,36.94803 2.6099,45.99142 -2.3788,99.90987 -4.9046,53.00961 -5.24,65.84578 -3.1622,121.25605 2.4242,64.64548 3.4607,70.06644 14.4733,75.67292 7.4044,3.76957 21.6987,1.26447 27.7956,-4.87126 4.9724,-5.00421 5.1776,-7.61178 4.4844,-57.19254 l -0.7255,-51.94983 5.7853,1.72255 c 19.654,5.85414 61.3865,24.25276 80.1074,35.31519 27.4606,16.22698 46.517,30.24918 72.5165,53.3625 11.2026,9.95901 22.8386,18.89189 25.8594,19.85071 12.4685,3.95727 28.3884,-10.06642 28.3884,-25.00681 0,-14.84269 -40.3606,-51.99569 -88.2601,-81.24474 l -25.3994,-15.51066 17.2794,-6.77858 c 48.4541,-19.01029 78.6753,-54.06836 78.6753,-91.26633 0,-14.65009 -6.6741,-38.52966 -14.5117,-51.9248 -21.158,-36.1608 -73.9249,-72.79111 -118.3556,-82.16088 -17.2116,-3.62967 -49.5671,-6.00858 -70.4148,-5.90672 z m 1320.419,4.02443 c -19.8089,0.14042 -38.7797,2.86286 -53.9649,8.4838 -76.8572,28.44973 -136.9183,133.34276 -128.7025,224.77077 5.5918,62.22382 49.5026,112.27902 113.1129,128.94113 23.2263,6.0839 63.228,6.70026 84.4282,1.30105 73.3805,-18.6885 130.9916,-102.74029 136.8783,-199.69852 3.9118,-64.42567 -13.6437,-113.4081 -49.6596,-138.57007 -23.4062,-16.35223 -64.2753,-25.49624 -102.0924,-25.22816 z m -1550.267,30.90006 c 4.2211,-0.0442 10.281,0.15717 19.0558,0.45806 32.4922,1.11424 48.6183,6.79836 67.3798,23.74811 14.6105,13.19975 18.7605,22.1897 18.615,40.31924 -0.2626,32.77008 -22.5007,60.3821 -56.9751,70.74007 -14.2272,4.27459 -38.3531,6.21048 -52.5329,4.21496 -9.407,-1.32383 -11.2974,-2.48032 -10.8877,-6.66116 0.2727,-2.78235 1.196,-31.23893 2.0517,-63.23592 0.8556,-31.99698 2.1086,-60.85838 2.783,-64.13664 0.8352,-4.06013 1.2241,-5.34956 10.5104,-5.44672 z m 243.7786,12.89508 16.8963,1.41461 c 26.6045,2.22761 47.8029,7.82975 66.1922,17.49303 46.2092,24.28226 69.613,64.36551 52.4521,89.83055 -14.8765,22.07533 -44.4856,35.88006 -86.4413,40.30192 -27.6745,2.91673 -51.3006,3.18777 -52.7485,0.60434 -0.5848,-1.04338 0.57,-16.69488 2.5655,-34.78014 2.3901,-21.66082 3.1939,-46.87092 2.3558,-73.87338 z m 1309.0636,2.98318 c 0.9923,-0.008 1.9902,-0.006 2.9928,0.008 12.5541,0.16875 25.9156,2.05247 40.1903,5.62766 40.6985,10.19323 58.8073,39.68601 58.8073,95.77383 0,69.67003 -35.0858,137.94748 -83.0289,161.57527 -15.2854,7.53305 -19.053,8.30329 -43.3697,8.85527 -39.5103,0.89682 -65.8399,-9.08761 -88.341,-33.49832 -22.8631,-24.80351 -29.7139,-55.34105 -22.1275,-98.63578 7.3935,-42.19287 26.5733,-79.0383 55.7009,-107.00794 22.5523,-21.65572 48.4135,-32.43705 79.1758,-32.69768 z M 1136.382,331.2935 c 1.7623,-0.0171 55.2184,24.70427 77.4667,35.82521 62.3716,31.17686 95.5921,68.01702 103.3049,114.56215 5.4536,32.91147 -6.7825,70.49651 -31.4332,96.561 -15.3591,16.23996 -25.8131,22.21191 -48.0678,27.45881 -21.2896,5.01937 -65.5135,4.80042 -80.3883,-0.3984 -23.7177,-8.28944 -21.5002,6.41247 -21.5002,-142.53292 0,-72.30888 0.2788,-131.4729 0.6179,-131.47585 z" />
  </g>
</svg>
